<svg version="1.1"
     width="400" height="250"
     xmlns="http://www.w3.org/2000/svg">
<text x="20" y="100">(1)</text>
<text x="100" y="100" text-anchor="end" font-style="italic">a</text>
<text x="100" y="115" text-anchor="end">data</text>
<rect x="110" y="90" width="32" height="26" fill="white" stroke="blue" />
<text x="126" y="103" text-anchor="middle" dominant-baseline="middle">3</text>
<rect x="142" y="90" width="32" height="26" fill="white" stroke="blue" />
<text x="158" y="103" text-anchor="middle" dominant-baseline="middle">2</text>
<rect x="174" y="90" width="32" height="26" fill="white" stroke="blue" />
<text x="190" y="103" text-anchor="middle" dominant-baseline="middle">1</text>
<rect x="206" y="90" width="32" height="26" fill="white" stroke="blue" />
<text x="222" y="103" text-anchor="middle" dominant-baseline="middle">0</text>
<rect x="238" y="90" width="32" height="26" fill="white" stroke="blue" />
<text x="254" y="103" text-anchor="middle" dominant-baseline="middle">3</text>
<rect x="270" y="90" width="32" height="26" fill="white" stroke="blue" />
<text x="286" y="103" text-anchor="middle" dominant-baseline="middle">2</text>
<rect x="302" y="90" width="32" height="26" fill="white" stroke="blue" />
<text x="318" y="103" text-anchor="middle" dominant-baseline="middle">1</text>
<rect x="334" y="90" width="32" height="26" fill="white" stroke="blue" />
<text x="350" y="103" text-anchor="middle" dominant-baseline="middle">0</text>
<text x="110" y="80" text-anchor="begin">upper</text>
<text x="366" y="80" text-anchor="end">lower</text>
<text x="20" y="200">(2)</text>
<text x="100" y="200" text-anchor="end" font-style="italic">ret</text>
<text x="100" y="215" text-anchor="end">returns</text>
<rect x="110" y="190" width="32" height="26" fill="white" stroke="blue" />
<rect x="142" y="190" width="32" height="26" fill="white" stroke="blue" />
<rect x="174" y="190" width="32" height="26" fill="white" stroke="blue" />
<rect x="206" y="190" width="32" height="26" fill="white" stroke="blue" />
<rect x="238" y="190" width="32" height="26" fill="white" stroke="blue" />
<rect x="270" y="190" width="32" height="26" fill="white" stroke="blue" />
<rect x="302" y="190" width="32" height="26" fill="white" stroke="blue" />
<rect x="334" y="190" width="32" height="26" fill="white" stroke="blue" />
<line x1="126" y1="116" x2="126" y2="190" stroke="black" />
<line x1="126" y1="116" x2="158" y2="190" stroke="black" />
<line x1="126" y1="116" x2="190" y2="190" stroke="black" />
<line x1="126" y1="116" x2="222" y2="190" stroke="black" />
<line x1="158" y1="116" x2="126" y2="190" stroke="black" />
<line x1="158" y1="116" x2="158" y2="190" stroke="black" />
<line x1="158" y1="116" x2="190" y2="190" stroke="black" />
<line x1="158" y1="116" x2="222" y2="190" stroke="black" />
<line x1="190" y1="116" x2="126" y2="190" stroke="black" />
<line x1="190" y1="116" x2="158" y2="190" stroke="black" />
<line x1="190" y1="116" x2="190" y2="190" stroke="black" />
<line x1="190" y1="116" x2="222" y2="190" stroke="black" />
<line x1="222" y1="116" x2="126" y2="190" stroke="black" />
<line x1="222" y1="116" x2="158" y2="190" stroke="black" />
<line x1="222" y1="116" x2="190" y2="190" stroke="black" />
<line x1="222" y1="116" x2="222" y2="190" stroke="black" />
<line x1="254" y1="116" x2="254" y2="190" stroke="black" />
<line x1="254" y1="116" x2="286" y2="190" stroke="black" />
<line x1="254" y1="116" x2="318" y2="190" stroke="black" />
<line x1="254" y1="116" x2="350" y2="190" stroke="black" />
<line x1="286" y1="116" x2="254" y2="190" stroke="black" />
<line x1="286" y1="116" x2="286" y2="190" stroke="black" />
<line x1="286" y1="116" x2="318" y2="190" stroke="black" />
<line x1="286" y1="116" x2="350" y2="190" stroke="black" />
<line x1="318" y1="116" x2="254" y2="190" stroke="black" />
<line x1="318" y1="116" x2="286" y2="190" stroke="black" />
<line x1="318" y1="116" x2="318" y2="190" stroke="black" />
<line x1="318" y1="116" x2="350" y2="190" stroke="black" />
<line x1="350" y1="116" x2="254" y2="190" stroke="black" />
<line x1="350" y1="116" x2="286" y2="190" stroke="black" />
<line x1="350" y1="116" x2="318" y2="190" stroke="black" />
<line x1="350" y1="116" x2="350" y2="190" stroke="black" />
</svg>
