<svg version="1.1"
     width="675" height="250"
     xmlns="http://www.w3.org/2000/svg">
<text x="20" y="100">(1)</text>
<text x="100" y="100" text-anchor="end" font-style="italic">a</text>
<text x="100" y="115" text-anchor="end">data</text>
<rect x="110" y="90" width="128" height="26" fill="white" stroke="blue" />
<text x="174" y="103" text-anchor="middle" dominant-baseline="middle">1</text>
<rect x="238" y="90" width="128" height="26" fill="white" stroke="blue" />
<text x="302" y="103" text-anchor="middle" dominant-baseline="middle">0</text>
<rect x="366" y="90" width="128" height="26" fill="white" stroke="blue" />
<text x="430" y="103" text-anchor="middle" dominant-baseline="middle">1</text>
<rect x="494" y="90" width="128" height="26" fill="white" stroke="blue" />
<text x="558" y="103" text-anchor="middle" dominant-baseline="middle">0</text>
<text x="110" y="80" text-anchor="begin">upper</text>
<text x="622" y="80" text-anchor="end">lower</text>
<text x="20" y="200">(2)</text>
<text x="100" y="200" text-anchor="end" font-style="italic">ret</text>
<text x="100" y="215" text-anchor="end">returns</text>
<rect x="110" y="190" width="128" height="26" fill="white" stroke="blue" />
<rect x="238" y="190" width="128" height="26" fill="white" stroke="blue" />
<rect x="366" y="190" width="128" height="26" fill="white" stroke="blue" />
<rect x="494" y="190" width="128" height="26" fill="white" stroke="blue" />
<line x1="174" y1="116" x2="174" y2="190" stroke="black" />
<line x1="302" y1="116" x2="174" y2="190" stroke="black" />
<line x1="174" y1="116" x2="302" y2="190" stroke="black" />
<line x1="302" y1="116" x2="302" y2="190" stroke="black" />
<line x1="430" y1="116" x2="430" y2="190" stroke="black" />
<line x1="558" y1="116" x2="430" y2="190" stroke="black" />
<line x1="430" y1="116" x2="558" y2="190" stroke="black" />
<line x1="558" y1="116" x2="558" y2="190" stroke="black" />
</svg>
