<svg version="1.1"
     width="1250" height="250"
     xmlns="http://www.w3.org/2000/svg">
<text x="20" y="100">(1)</text>
<text x="100" y="100" text-anchor="end" font-style="italic">b</text>
<text x="100" y="115" text-anchor="end">data</text>
<rect x="110" y="90" width="256" height="26" fill="white" stroke="blue" />
<text x="238" y="103" text-anchor="middle" dominant-baseline="middle">1</text>
<rect x="366" y="90" width="256" height="26" fill="white" stroke="blue" />
<text x="494" y="103" text-anchor="middle" dominant-baseline="middle">0</text>
<text x="110" y="80" text-anchor="begin">upper</text>
<text x="622" y="80" text-anchor="end">lower</text>
<text x="675" y="100" text-anchor="end" font-style="italic">a</text>
<text x="675" y="115" text-anchor="end">data</text>
<rect x="685" y="90" width="256" height="26" fill="white" stroke="blue" />
<text x="813" y="103" text-anchor="middle" dominant-baseline="middle">3</text>
<rect x="941" y="90" width="256" height="26" fill="white" stroke="blue" />
<text x="1069" y="103" text-anchor="middle" dominant-baseline="middle">2</text>
<text x="685" y="80" text-anchor="begin">upper</text>
<text x="1197" y="80" text-anchor="end">lower</text>
<text x="20" y="200">(2)</text>
<text x="100" y="200" text-anchor="end" font-style="italic">ret</text>
<text x="100" y="215" text-anchor="end">returns</text>
<rect x="110" y="190" width="256" height="26" fill="white" stroke="blue" />
<rect x="366" y="190" width="256" height="26" fill="white" stroke="blue" />
<line x1="238" y1="116" x2="238" y2="190" stroke="black" />
<line x1="494" y1="116" x2="238" y2="190" stroke="black" />
<line x1="813" y1="116" x2="238" y2="190" stroke="black" />
<line x1="1069" y1="116" x2="238" y2="190" stroke="black" />
<line x1="238" y1="116" x2="494" y2="190" stroke="black" />
<line x1="494" y1="116" x2="494" y2="190" stroke="black" />
<line x1="813" y1="116" x2="494" y2="190" stroke="black" />
<line x1="1069" y1="116" x2="494" y2="190" stroke="black" />
</svg>
