<svg version="1.1"
     width="1250" height="350"
     xmlns="http://www.w3.org/2000/svg">
<text x="20" y="100">(1)</text>
<text x="100" y="100" text-anchor="end" font-style="italic">b</text>
<text x="100" y="115" text-anchor="end">data</text>
<rect x="110" y="90" width="128" height="26" fill="white" stroke="blue" />
<text x="174" y="103" text-anchor="middle" dominant-baseline="middle">3</text>
<rect x="238" y="90" width="128" height="26" fill="white" stroke="blue" />
<text x="302" y="103" text-anchor="middle" dominant-baseline="middle">2</text>
<rect x="366" y="90" width="128" height="26" fill="white" stroke="blue" />
<text x="430" y="103" text-anchor="middle" dominant-baseline="middle">3</text>
<rect x="494" y="90" width="128" height="26" fill="white" stroke="blue" />
<text x="558" y="103" text-anchor="middle" dominant-baseline="middle">2</text>
<text x="110" y="80" text-anchor="begin">upper</text>
<text x="622" y="80" text-anchor="end">lower</text>
<text x="675" y="100" text-anchor="end" font-style="italic">a</text>
<text x="675" y="115" text-anchor="end">data</text>
<rect x="685" y="90" width="128" height="26" fill="white" stroke="blue" />
<text x="749" y="103" text-anchor="middle" dominant-baseline="middle">1</text>
<rect x="813" y="90" width="128" height="26" fill="white" stroke="blue" />
<text x="877" y="103" text-anchor="middle" dominant-baseline="middle">0</text>
<rect x="941" y="90" width="128" height="26" fill="white" stroke="blue" />
<text x="1005" y="103" text-anchor="middle" dominant-baseline="middle">1</text>
<rect x="1069" y="90" width="128" height="26" fill="white" stroke="blue" />
<text x="1133" y="103" text-anchor="middle" dominant-baseline="middle">0</text>
<text x="685" y="80" text-anchor="begin">upper</text>
<text x="1197" y="80" text-anchor="end">lower</text>
<text x="20" y="200">(2)</text>
<text x="100" y="200" text-anchor="end" font-style="italic">hi</text>
<text x="100" y="215" text-anchor="end">merged</text>
<rect x="110" y="190" width="128" height="26" fill="white" stroke="blue" />
<text x="174" y="203" text-anchor="middle" dominant-baseline="middle">3</text>
<rect x="238" y="190" width="128" height="26" fill="white" stroke="blue" />
<text x="302" y="203" text-anchor="middle" dominant-baseline="middle">2</text>
<rect x="366" y="190" width="128" height="26" fill="white" stroke="blue" />
<text x="430" y="203" text-anchor="middle" dominant-baseline="middle">1</text>
<rect x="494" y="190" width="128" height="26" fill="white" stroke="blue" />
<text x="558" y="203" text-anchor="middle" dominant-baseline="middle">0</text>
<text x="675" y="200" text-anchor="end" font-style="italic">lo</text>
<text x="675" y="215" text-anchor="end">merged</text>
<rect x="685" y="190" width="128" height="26" fill="white" stroke="blue" />
<text x="749" y="203" text-anchor="middle" dominant-baseline="middle">3</text>
<rect x="813" y="190" width="128" height="26" fill="white" stroke="blue" />
<text x="877" y="203" text-anchor="middle" dominant-baseline="middle">2</text>
<rect x="941" y="190" width="128" height="26" fill="white" stroke="blue" />
<text x="1005" y="203" text-anchor="middle" dominant-baseline="middle">1</text>
<rect x="1069" y="190" width="128" height="26" fill="white" stroke="blue" />
<text x="1133" y="203" text-anchor="middle" dominant-baseline="middle">0</text>
<text x="20" y="300">(3)</text>
<text x="100" y="300" text-anchor="end" font-style="italic">ret</text>
<text x="100" y="315" text-anchor="end">returns</text>
<rect x="110" y="290" width="128" height="26" fill="white" stroke="blue" />
<rect x="238" y="290" width="128" height="26" fill="white" stroke="blue" />
<rect x="366" y="290" width="128" height="26" fill="white" stroke="blue" />
<rect x="494" y="290" width="128" height="26" fill="white" stroke="blue" />
<line x1="174" y1="116" x2="174" y2="190" stroke="black" />
<line x1="302" y1="116" x2="302" y2="190" stroke="black" />
<line x1="430" y1="116" x2="749" y2="190" stroke="black" />
<line x1="558" y1="116" x2="877" y2="190" stroke="black" />
<line x1="749" y1="116" x2="430" y2="190" stroke="black" />
<line x1="877" y1="116" x2="558" y2="190" stroke="black" />
<line x1="1005" y1="116" x2="1005" y2="190" stroke="black" />
<line x1="1133" y1="116" x2="1133" y2="190" stroke="black" />
<line x1="174" y1="216" x2="174" y2="290" stroke="black" />
<line x1="174" y1="216" x2="302" y2="290" stroke="black" />
<line x1="749" y1="216" x2="430" y2="290" stroke="black" />
<line x1="749" y1="216" x2="558" y2="290" stroke="black" />
<line x1="302" y1="216" x2="174" y2="290" stroke="black" />
<line x1="302" y1="216" x2="302" y2="290" stroke="black" />
<line x1="877" y1="216" x2="430" y2="290" stroke="black" />
<line x1="877" y1="216" x2="558" y2="290" stroke="black" />
<line x1="430" y1="216" x2="174" y2="290" stroke="black" />
<line x1="430" y1="216" x2="302" y2="290" stroke="black" />
<line x1="1005" y1="216" x2="430" y2="290" stroke="black" />
<line x1="1005" y1="216" x2="558" y2="290" stroke="black" />
<line x1="558" y1="216" x2="174" y2="290" stroke="black" />
<line x1="558" y1="216" x2="302" y2="290" stroke="black" />
<line x1="1133" y1="216" x2="430" y2="290" stroke="black" />
<line x1="1133" y1="216" x2="558" y2="290" stroke="black" />
</svg>
