<svg version="1.1"
     width="1250" height="450"
     xmlns="http://www.w3.org/2000/svg">
<text x="20" y="100">(1)</text>
<text x="100" y="100" text-anchor="end" font-style="italic">b</text>
<text x="100" y="115" text-anchor="end">data</text>
<rect x="110" y="90" width="32" height="26" fill="white" stroke="blue" />
<text x="126" y="103" text-anchor="middle" dominant-baseline="middle">15</text>
<rect x="142" y="90" width="32" height="26" fill="white" stroke="blue" />
<text x="158" y="103" text-anchor="middle" dominant-baseline="middle">14</text>
<rect x="174" y="90" width="32" height="26" fill="white" stroke="blue" />
<text x="190" y="103" text-anchor="middle" dominant-baseline="middle">13</text>
<rect x="206" y="90" width="32" height="26" fill="white" stroke="blue" />
<text x="222" y="103" text-anchor="middle" dominant-baseline="middle">12</text>
<rect x="238" y="90" width="32" height="26" fill="white" stroke="blue" />
<text x="254" y="103" text-anchor="middle" dominant-baseline="middle">11</text>
<rect x="270" y="90" width="32" height="26" fill="white" stroke="blue" />
<text x="286" y="103" text-anchor="middle" dominant-baseline="middle">10</text>
<rect x="302" y="90" width="32" height="26" fill="white" stroke="blue" />
<text x="318" y="103" text-anchor="middle" dominant-baseline="middle">9</text>
<rect x="334" y="90" width="32" height="26" fill="white" stroke="blue" />
<text x="350" y="103" text-anchor="middle" dominant-baseline="middle">8</text>
<rect x="366" y="90" width="32" height="26" fill="white" stroke="blue" />
<text x="382" y="103" text-anchor="middle" dominant-baseline="middle">15</text>
<rect x="398" y="90" width="32" height="26" fill="white" stroke="blue" />
<text x="414" y="103" text-anchor="middle" dominant-baseline="middle">14</text>
<rect x="430" y="90" width="32" height="26" fill="white" stroke="blue" />
<text x="446" y="103" text-anchor="middle" dominant-baseline="middle">13</text>
<rect x="462" y="90" width="32" height="26" fill="white" stroke="blue" />
<text x="478" y="103" text-anchor="middle" dominant-baseline="middle">12</text>
<rect x="494" y="90" width="32" height="26" fill="white" stroke="blue" />
<text x="510" y="103" text-anchor="middle" dominant-baseline="middle">11</text>
<rect x="526" y="90" width="32" height="26" fill="white" stroke="blue" />
<text x="542" y="103" text-anchor="middle" dominant-baseline="middle">10</text>
<rect x="558" y="90" width="32" height="26" fill="white" stroke="blue" />
<text x="574" y="103" text-anchor="middle" dominant-baseline="middle">9</text>
<rect x="590" y="90" width="32" height="26" fill="white" stroke="blue" />
<text x="606" y="103" text-anchor="middle" dominant-baseline="middle">8</text>
<text x="110" y="80" text-anchor="begin">upper</text>
<text x="622" y="80" text-anchor="end">lower</text>
<text x="675" y="100" text-anchor="end" font-style="italic">c</text>
<text x="675" y="115" text-anchor="end">data</text>
<rect x="685" y="90" width="32" height="26" fill="white" stroke="blue" />
<text x="701" y="103" text-anchor="middle" dominant-baseline="middle">7</text>
<rect x="717" y="90" width="32" height="26" fill="white" stroke="blue" />
<text x="733" y="103" text-anchor="middle" dominant-baseline="middle">6</text>
<rect x="749" y="90" width="32" height="26" fill="white" stroke="blue" />
<text x="765" y="103" text-anchor="middle" dominant-baseline="middle">5</text>
<rect x="781" y="90" width="32" height="26" fill="white" stroke="blue" />
<text x="797" y="103" text-anchor="middle" dominant-baseline="middle">4</text>
<rect x="813" y="90" width="32" height="26" fill="white" stroke="blue" />
<text x="829" y="103" text-anchor="middle" dominant-baseline="middle">3</text>
<rect x="845" y="90" width="32" height="26" fill="white" stroke="blue" />
<text x="861" y="103" text-anchor="middle" dominant-baseline="middle">2</text>
<rect x="877" y="90" width="32" height="26" fill="white" stroke="blue" />
<text x="893" y="103" text-anchor="middle" dominant-baseline="middle">1</text>
<rect x="909" y="90" width="32" height="26" fill="white" stroke="blue" />
<text x="925" y="103" text-anchor="middle" dominant-baseline="middle">0</text>
<rect x="941" y="90" width="32" height="26" fill="white" stroke="blue" />
<text x="957" y="103" text-anchor="middle" dominant-baseline="middle">7</text>
<rect x="973" y="90" width="32" height="26" fill="white" stroke="blue" />
<text x="989" y="103" text-anchor="middle" dominant-baseline="middle">6</text>
<rect x="1005" y="90" width="32" height="26" fill="white" stroke="blue" />
<text x="1021" y="103" text-anchor="middle" dominant-baseline="middle">5</text>
<rect x="1037" y="90" width="32" height="26" fill="white" stroke="blue" />
<text x="1053" y="103" text-anchor="middle" dominant-baseline="middle">4</text>
<rect x="1069" y="90" width="32" height="26" fill="white" stroke="blue" />
<text x="1085" y="103" text-anchor="middle" dominant-baseline="middle">3</text>
<rect x="1101" y="90" width="32" height="26" fill="white" stroke="blue" />
<text x="1117" y="103" text-anchor="middle" dominant-baseline="middle">2</text>
<rect x="1133" y="90" width="32" height="26" fill="white" stroke="blue" />
<text x="1149" y="103" text-anchor="middle" dominant-baseline="middle">1</text>
<rect x="1165" y="90" width="32" height="26" fill="white" stroke="blue" />
<text x="1181" y="103" text-anchor="middle" dominant-baseline="middle">0</text>
<text x="685" y="80" text-anchor="begin">upper</text>
<text x="1197" y="80" text-anchor="end">lower</text>
<text x="20" y="200">(2)</text>
<text x="100" y="200" text-anchor="end" font-style="italic">hi</text>
<text x="100" y="215" text-anchor="end">merged</text>
<rect x="110" y="190" width="32" height="26" fill="white" stroke="blue" />
<text x="126" y="203" text-anchor="middle" dominant-baseline="middle">15</text>
<rect x="142" y="190" width="32" height="26" fill="white" stroke="blue" />
<text x="158" y="203" text-anchor="middle" dominant-baseline="middle">14</text>
<rect x="174" y="190" width="32" height="26" fill="white" stroke="blue" />
<text x="190" y="203" text-anchor="middle" dominant-baseline="middle">13</text>
<rect x="206" y="190" width="32" height="26" fill="white" stroke="blue" />
<text x="222" y="203" text-anchor="middle" dominant-baseline="middle">12</text>
<rect x="238" y="190" width="32" height="26" fill="white" stroke="blue" />
<text x="254" y="203" text-anchor="middle" dominant-baseline="middle">11</text>
<rect x="270" y="190" width="32" height="26" fill="white" stroke="blue" />
<text x="286" y="203" text-anchor="middle" dominant-baseline="middle">10</text>
<rect x="302" y="190" width="32" height="26" fill="white" stroke="blue" />
<text x="318" y="203" text-anchor="middle" dominant-baseline="middle">9</text>
<rect x="334" y="190" width="32" height="26" fill="white" stroke="blue" />
<text x="350" y="203" text-anchor="middle" dominant-baseline="middle">8</text>
<rect x="366" y="190" width="32" height="26" fill="white" stroke="blue" />
<text x="382" y="203" text-anchor="middle" dominant-baseline="middle">7</text>
<rect x="398" y="190" width="32" height="26" fill="white" stroke="blue" />
<text x="414" y="203" text-anchor="middle" dominant-baseline="middle">6</text>
<rect x="430" y="190" width="32" height="26" fill="white" stroke="blue" />
<text x="446" y="203" text-anchor="middle" dominant-baseline="middle">5</text>
<rect x="462" y="190" width="32" height="26" fill="white" stroke="blue" />
<text x="478" y="203" text-anchor="middle" dominant-baseline="middle">4</text>
<rect x="494" y="190" width="32" height="26" fill="white" stroke="blue" />
<text x="510" y="203" text-anchor="middle" dominant-baseline="middle">3</text>
<rect x="526" y="190" width="32" height="26" fill="white" stroke="blue" />
<text x="542" y="203" text-anchor="middle" dominant-baseline="middle">2</text>
<rect x="558" y="190" width="32" height="26" fill="white" stroke="blue" />
<text x="574" y="203" text-anchor="middle" dominant-baseline="middle">1</text>
<rect x="590" y="190" width="32" height="26" fill="white" stroke="blue" />
<text x="606" y="203" text-anchor="middle" dominant-baseline="middle">0</text>
<text x="675" y="200" text-anchor="end" font-style="italic">lo</text>
<text x="675" y="215" text-anchor="end">merged</text>
<rect x="685" y="190" width="32" height="26" fill="white" stroke="blue" />
<text x="701" y="203" text-anchor="middle" dominant-baseline="middle">15</text>
<rect x="717" y="190" width="32" height="26" fill="white" stroke="blue" />
<text x="733" y="203" text-anchor="middle" dominant-baseline="middle">14</text>
<rect x="749" y="190" width="32" height="26" fill="white" stroke="blue" />
<text x="765" y="203" text-anchor="middle" dominant-baseline="middle">13</text>
<rect x="781" y="190" width="32" height="26" fill="white" stroke="blue" />
<text x="797" y="203" text-anchor="middle" dominant-baseline="middle">12</text>
<rect x="813" y="190" width="32" height="26" fill="white" stroke="blue" />
<text x="829" y="203" text-anchor="middle" dominant-baseline="middle">11</text>
<rect x="845" y="190" width="32" height="26" fill="white" stroke="blue" />
<text x="861" y="203" text-anchor="middle" dominant-baseline="middle">10</text>
<rect x="877" y="190" width="32" height="26" fill="white" stroke="blue" />
<text x="893" y="203" text-anchor="middle" dominant-baseline="middle">9</text>
<rect x="909" y="190" width="32" height="26" fill="white" stroke="blue" />
<text x="925" y="203" text-anchor="middle" dominant-baseline="middle">8</text>
<rect x="941" y="190" width="32" height="26" fill="white" stroke="blue" />
<text x="957" y="203" text-anchor="middle" dominant-baseline="middle">7</text>
<rect x="973" y="190" width="32" height="26" fill="white" stroke="blue" />
<text x="989" y="203" text-anchor="middle" dominant-baseline="middle">6</text>
<rect x="1005" y="190" width="32" height="26" fill="white" stroke="blue" />
<text x="1021" y="203" text-anchor="middle" dominant-baseline="middle">5</text>
<rect x="1037" y="190" width="32" height="26" fill="white" stroke="blue" />
<text x="1053" y="203" text-anchor="middle" dominant-baseline="middle">4</text>
<rect x="1069" y="190" width="32" height="26" fill="white" stroke="blue" />
<text x="1085" y="203" text-anchor="middle" dominant-baseline="middle">3</text>
<rect x="1101" y="190" width="32" height="26" fill="white" stroke="blue" />
<text x="1117" y="203" text-anchor="middle" dominant-baseline="middle">2</text>
<rect x="1133" y="190" width="32" height="26" fill="white" stroke="blue" />
<text x="1149" y="203" text-anchor="middle" dominant-baseline="middle">1</text>
<rect x="1165" y="190" width="32" height="26" fill="white" stroke="blue" />
<text x="1181" y="203" text-anchor="middle" dominant-baseline="middle">0</text>
<text x="20" y="300">(3)</text>
<text x="100" y="300" text-anchor="end" font-style="italic">a</text>
<text x="100" y="315" text-anchor="end">indices</text>
<rect x="110" y="290" width="32" height="26" fill="white" stroke="blue" />
<rect x="142" y="290" width="32" height="26" fill="white" stroke="blue" />
<rect x="174" y="290" width="32" height="26" fill="white" stroke="blue" />
<rect x="206" y="290" width="32" height="26" fill="white" stroke="blue" />
<rect x="238" y="290" width="32" height="26" fill="white" stroke="blue" />
<rect x="270" y="290" width="32" height="26" fill="white" stroke="blue" />
<rect x="302" y="290" width="32" height="26" fill="white" stroke="blue" />
<rect x="334" y="290" width="32" height="26" fill="white" stroke="blue" />
<rect x="366" y="290" width="32" height="26" fill="white" stroke="blue" />
<rect x="398" y="290" width="32" height="26" fill="white" stroke="blue" />
<rect x="430" y="290" width="32" height="26" fill="white" stroke="blue" />
<rect x="462" y="290" width="32" height="26" fill="white" stroke="blue" />
<rect x="494" y="290" width="32" height="26" fill="white" stroke="blue" />
<rect x="526" y="290" width="32" height="26" fill="white" stroke="blue" />
<rect x="558" y="290" width="32" height="26" fill="white" stroke="blue" />
<rect x="590" y="290" width="32" height="26" fill="white" stroke="blue" />
<text x="20" y="400">(4)</text>
<text x="100" y="400" text-anchor="end" font-style="italic">ret</text>
<text x="100" y="415" text-anchor="end">returns</text>
<rect x="110" y="390" width="32" height="26" fill="white" stroke="blue" />
<rect x="142" y="390" width="32" height="26" fill="white" stroke="blue" />
<rect x="174" y="390" width="32" height="26" fill="white" stroke="blue" />
<rect x="206" y="390" width="32" height="26" fill="white" stroke="blue" />
<rect x="238" y="390" width="32" height="26" fill="white" stroke="blue" />
<rect x="270" y="390" width="32" height="26" fill="white" stroke="blue" />
<rect x="302" y="390" width="32" height="26" fill="white" stroke="blue" />
<rect x="334" y="390" width="32" height="26" fill="white" stroke="blue" />
<rect x="366" y="390" width="32" height="26" fill="white" stroke="blue" />
<rect x="398" y="390" width="32" height="26" fill="white" stroke="blue" />
<rect x="430" y="390" width="32" height="26" fill="white" stroke="blue" />
<rect x="462" y="390" width="32" height="26" fill="white" stroke="blue" />
<rect x="494" y="390" width="32" height="26" fill="white" stroke="blue" />
<rect x="526" y="390" width="32" height="26" fill="white" stroke="blue" />
<rect x="558" y="390" width="32" height="26" fill="white" stroke="blue" />
<rect x="590" y="390" width="32" height="26" fill="white" stroke="blue" />
<line x1="126" y1="116" x2="126" y2="190" stroke="black" />
<line x1="382" y1="116" x2="701" y2="190" stroke="black" />
<line x1="158" y1="116" x2="158" y2="190" stroke="black" />
<line x1="414" y1="116" x2="733" y2="190" stroke="black" />
<line x1="190" y1="116" x2="190" y2="190" stroke="black" />
<line x1="446" y1="116" x2="765" y2="190" stroke="black" />
<line x1="222" y1="116" x2="222" y2="190" stroke="black" />
<line x1="478" y1="116" x2="797" y2="190" stroke="black" />
<line x1="254" y1="116" x2="254" y2="190" stroke="black" />
<line x1="510" y1="116" x2="829" y2="190" stroke="black" />
<line x1="286" y1="116" x2="286" y2="190" stroke="black" />
<line x1="542" y1="116" x2="861" y2="190" stroke="black" />
<line x1="318" y1="116" x2="318" y2="190" stroke="black" />
<line x1="574" y1="116" x2="893" y2="190" stroke="black" />
<line x1="350" y1="116" x2="350" y2="190" stroke="black" />
<line x1="606" y1="116" x2="925" y2="190" stroke="black" />
<line x1="701" y1="116" x2="382" y2="190" stroke="black" />
<line x1="957" y1="116" x2="957" y2="190" stroke="black" />
<line x1="733" y1="116" x2="414" y2="190" stroke="black" />
<line x1="989" y1="116" x2="989" y2="190" stroke="black" />
<line x1="765" y1="116" x2="446" y2="190" stroke="black" />
<line x1="1021" y1="116" x2="1021" y2="190" stroke="black" />
<line x1="797" y1="116" x2="478" y2="190" stroke="black" />
<line x1="1053" y1="116" x2="1053" y2="190" stroke="black" />
<line x1="829" y1="116" x2="510" y2="190" stroke="black" />
<line x1="1085" y1="116" x2="1085" y2="190" stroke="black" />
<line x1="861" y1="116" x2="542" y2="190" stroke="black" />
<line x1="1117" y1="116" x2="1117" y2="190" stroke="black" />
<line x1="893" y1="116" x2="574" y2="190" stroke="black" />
<line x1="1149" y1="116" x2="1149" y2="190" stroke="black" />
<line x1="925" y1="116" x2="606" y2="190" stroke="black" />
<line x1="1181" y1="116" x2="1181" y2="190" stroke="black" />
<line x1="126" y1="216" x2="126" y2="290" stroke="black" />
<line x1="701" y1="216" x2="382" y2="290" stroke="black" />
<line x1="126" y1="216" x2="158" y2="290" stroke="black" />
<line x1="701" y1="216" x2="414" y2="290" stroke="black" />
<line x1="126" y1="216" x2="190" y2="290" stroke="black" />
<line x1="701" y1="216" x2="446" y2="290" stroke="black" />
<line x1="126" y1="216" x2="222" y2="290" stroke="black" />
<line x1="701" y1="216" x2="478" y2="290" stroke="black" />
<line x1="126" y1="216" x2="254" y2="290" stroke="black" />
<line x1="701" y1="216" x2="510" y2="290" stroke="black" />
<line x1="126" y1="216" x2="286" y2="290" stroke="black" />
<line x1="701" y1="216" x2="542" y2="290" stroke="black" />
<line x1="126" y1="216" x2="318" y2="290" stroke="black" />
<line x1="701" y1="216" x2="574" y2="290" stroke="black" />
<line x1="126" y1="216" x2="350" y2="290" stroke="black" />
<line x1="701" y1="216" x2="606" y2="290" stroke="black" />
<line x1="158" y1="216" x2="126" y2="290" stroke="black" />
<line x1="733" y1="216" x2="382" y2="290" stroke="black" />
<line x1="158" y1="216" x2="158" y2="290" stroke="black" />
<line x1="733" y1="216" x2="414" y2="290" stroke="black" />
<line x1="158" y1="216" x2="190" y2="290" stroke="black" />
<line x1="733" y1="216" x2="446" y2="290" stroke="black" />
<line x1="158" y1="216" x2="222" y2="290" stroke="black" />
<line x1="733" y1="216" x2="478" y2="290" stroke="black" />
<line x1="158" y1="216" x2="254" y2="290" stroke="black" />
<line x1="733" y1="216" x2="510" y2="290" stroke="black" />
<line x1="158" y1="216" x2="286" y2="290" stroke="black" />
<line x1="733" y1="216" x2="542" y2="290" stroke="black" />
<line x1="158" y1="216" x2="318" y2="290" stroke="black" />
<line x1="733" y1="216" x2="574" y2="290" stroke="black" />
<line x1="158" y1="216" x2="350" y2="290" stroke="black" />
<line x1="733" y1="216" x2="606" y2="290" stroke="black" />
<line x1="190" y1="216" x2="126" y2="290" stroke="black" />
<line x1="765" y1="216" x2="382" y2="290" stroke="black" />
<line x1="190" y1="216" x2="158" y2="290" stroke="black" />
<line x1="765" y1="216" x2="414" y2="290" stroke="black" />
<line x1="190" y1="216" x2="190" y2="290" stroke="black" />
<line x1="765" y1="216" x2="446" y2="290" stroke="black" />
<line x1="190" y1="216" x2="222" y2="290" stroke="black" />
<line x1="765" y1="216" x2="478" y2="290" stroke="black" />
<line x1="190" y1="216" x2="254" y2="290" stroke="black" />
<line x1="765" y1="216" x2="510" y2="290" stroke="black" />
<line x1="190" y1="216" x2="286" y2="290" stroke="black" />
<line x1="765" y1="216" x2="542" y2="290" stroke="black" />
<line x1="190" y1="216" x2="318" y2="290" stroke="black" />
<line x1="765" y1="216" x2="574" y2="290" stroke="black" />
<line x1="190" y1="216" x2="350" y2="290" stroke="black" />
<line x1="765" y1="216" x2="606" y2="290" stroke="black" />
<line x1="222" y1="216" x2="126" y2="290" stroke="black" />
<line x1="797" y1="216" x2="382" y2="290" stroke="black" />
<line x1="222" y1="216" x2="158" y2="290" stroke="black" />
<line x1="797" y1="216" x2="414" y2="290" stroke="black" />
<line x1="222" y1="216" x2="190" y2="290" stroke="black" />
<line x1="797" y1="216" x2="446" y2="290" stroke="black" />
<line x1="222" y1="216" x2="222" y2="290" stroke="black" />
<line x1="797" y1="216" x2="478" y2="290" stroke="black" />
<line x1="222" y1="216" x2="254" y2="290" stroke="black" />
<line x1="797" y1="216" x2="510" y2="290" stroke="black" />
<line x1="222" y1="216" x2="286" y2="290" stroke="black" />
<line x1="797" y1="216" x2="542" y2="290" stroke="black" />
<line x1="222" y1="216" x2="318" y2="290" stroke="black" />
<line x1="797" y1="216" x2="574" y2="290" stroke="black" />
<line x1="222" y1="216" x2="350" y2="290" stroke="black" />
<line x1="797" y1="216" x2="606" y2="290" stroke="black" />
<line x1="254" y1="216" x2="126" y2="290" stroke="black" />
<line x1="829" y1="216" x2="382" y2="290" stroke="black" />
<line x1="254" y1="216" x2="158" y2="290" stroke="black" />
<line x1="829" y1="216" x2="414" y2="290" stroke="black" />
<line x1="254" y1="216" x2="190" y2="290" stroke="black" />
<line x1="829" y1="216" x2="446" y2="290" stroke="black" />
<line x1="254" y1="216" x2="222" y2="290" stroke="black" />
<line x1="829" y1="216" x2="478" y2="290" stroke="black" />
<line x1="254" y1="216" x2="254" y2="290" stroke="black" />
<line x1="829" y1="216" x2="510" y2="290" stroke="black" />
<line x1="254" y1="216" x2="286" y2="290" stroke="black" />
<line x1="829" y1="216" x2="542" y2="290" stroke="black" />
<line x1="254" y1="216" x2="318" y2="290" stroke="black" />
<line x1="829" y1="216" x2="574" y2="290" stroke="black" />
<line x1="254" y1="216" x2="350" y2="290" stroke="black" />
<line x1="829" y1="216" x2="606" y2="290" stroke="black" />
<line x1="286" y1="216" x2="126" y2="290" stroke="black" />
<line x1="861" y1="216" x2="382" y2="290" stroke="black" />
<line x1="286" y1="216" x2="158" y2="290" stroke="black" />
<line x1="861" y1="216" x2="414" y2="290" stroke="black" />
<line x1="286" y1="216" x2="190" y2="290" stroke="black" />
<line x1="861" y1="216" x2="446" y2="290" stroke="black" />
<line x1="286" y1="216" x2="222" y2="290" stroke="black" />
<line x1="861" y1="216" x2="478" y2="290" stroke="black" />
<line x1="286" y1="216" x2="254" y2="290" stroke="black" />
<line x1="861" y1="216" x2="510" y2="290" stroke="black" />
<line x1="286" y1="216" x2="286" y2="290" stroke="black" />
<line x1="861" y1="216" x2="542" y2="290" stroke="black" />
<line x1="286" y1="216" x2="318" y2="290" stroke="black" />
<line x1="861" y1="216" x2="574" y2="290" stroke="black" />
<line x1="286" y1="216" x2="350" y2="290" stroke="black" />
<line x1="861" y1="216" x2="606" y2="290" stroke="black" />
<line x1="318" y1="216" x2="126" y2="290" stroke="black" />
<line x1="893" y1="216" x2="382" y2="290" stroke="black" />
<line x1="318" y1="216" x2="158" y2="290" stroke="black" />
<line x1="893" y1="216" x2="414" y2="290" stroke="black" />
<line x1="318" y1="216" x2="190" y2="290" stroke="black" />
<line x1="893" y1="216" x2="446" y2="290" stroke="black" />
<line x1="318" y1="216" x2="222" y2="290" stroke="black" />
<line x1="893" y1="216" x2="478" y2="290" stroke="black" />
<line x1="318" y1="216" x2="254" y2="290" stroke="black" />
<line x1="893" y1="216" x2="510" y2="290" stroke="black" />
<line x1="318" y1="216" x2="286" y2="290" stroke="black" />
<line x1="893" y1="216" x2="542" y2="290" stroke="black" />
<line x1="318" y1="216" x2="318" y2="290" stroke="black" />
<line x1="893" y1="216" x2="574" y2="290" stroke="black" />
<line x1="318" y1="216" x2="350" y2="290" stroke="black" />
<line x1="893" y1="216" x2="606" y2="290" stroke="black" />
<line x1="350" y1="216" x2="126" y2="290" stroke="black" />
<line x1="925" y1="216" x2="382" y2="290" stroke="black" />
<line x1="350" y1="216" x2="158" y2="290" stroke="black" />
<line x1="925" y1="216" x2="414" y2="290" stroke="black" />
<line x1="350" y1="216" x2="190" y2="290" stroke="black" />
<line x1="925" y1="216" x2="446" y2="290" stroke="black" />
<line x1="350" y1="216" x2="222" y2="290" stroke="black" />
<line x1="925" y1="216" x2="478" y2="290" stroke="black" />
<line x1="350" y1="216" x2="254" y2="290" stroke="black" />
<line x1="925" y1="216" x2="510" y2="290" stroke="black" />
<line x1="350" y1="216" x2="286" y2="290" stroke="black" />
<line x1="925" y1="216" x2="542" y2="290" stroke="black" />
<line x1="350" y1="216" x2="318" y2="290" stroke="black" />
<line x1="925" y1="216" x2="574" y2="290" stroke="black" />
<line x1="350" y1="216" x2="350" y2="290" stroke="black" />
<line x1="925" y1="216" x2="606" y2="290" stroke="black" />
<line x1="382" y1="216" x2="126" y2="290" stroke="black" />
<line x1="957" y1="216" x2="382" y2="290" stroke="black" />
<line x1="382" y1="216" x2="158" y2="290" stroke="black" />
<line x1="957" y1="216" x2="414" y2="290" stroke="black" />
<line x1="382" y1="216" x2="190" y2="290" stroke="black" />
<line x1="957" y1="216" x2="446" y2="290" stroke="black" />
<line x1="382" y1="216" x2="222" y2="290" stroke="black" />
<line x1="957" y1="216" x2="478" y2="290" stroke="black" />
<line x1="382" y1="216" x2="254" y2="290" stroke="black" />
<line x1="957" y1="216" x2="510" y2="290" stroke="black" />
<line x1="382" y1="216" x2="286" y2="290" stroke="black" />
<line x1="957" y1="216" x2="542" y2="290" stroke="black" />
<line x1="382" y1="216" x2="318" y2="290" stroke="black" />
<line x1="957" y1="216" x2="574" y2="290" stroke="black" />
<line x1="382" y1="216" x2="350" y2="290" stroke="black" />
<line x1="957" y1="216" x2="606" y2="290" stroke="black" />
<line x1="414" y1="216" x2="126" y2="290" stroke="black" />
<line x1="989" y1="216" x2="382" y2="290" stroke="black" />
<line x1="414" y1="216" x2="158" y2="290" stroke="black" />
<line x1="989" y1="216" x2="414" y2="290" stroke="black" />
<line x1="414" y1="216" x2="190" y2="290" stroke="black" />
<line x1="989" y1="216" x2="446" y2="290" stroke="black" />
<line x1="414" y1="216" x2="222" y2="290" stroke="black" />
<line x1="989" y1="216" x2="478" y2="290" stroke="black" />
<line x1="414" y1="216" x2="254" y2="290" stroke="black" />
<line x1="989" y1="216" x2="510" y2="290" stroke="black" />
<line x1="414" y1="216" x2="286" y2="290" stroke="black" />
<line x1="989" y1="216" x2="542" y2="290" stroke="black" />
<line x1="414" y1="216" x2="318" y2="290" stroke="black" />
<line x1="989" y1="216" x2="574" y2="290" stroke="black" />
<line x1="414" y1="216" x2="350" y2="290" stroke="black" />
<line x1="989" y1="216" x2="606" y2="290" stroke="black" />
<line x1="446" y1="216" x2="126" y2="290" stroke="black" />
<line x1="1021" y1="216" x2="382" y2="290" stroke="black" />
<line x1="446" y1="216" x2="158" y2="290" stroke="black" />
<line x1="1021" y1="216" x2="414" y2="290" stroke="black" />
<line x1="446" y1="216" x2="190" y2="290" stroke="black" />
<line x1="1021" y1="216" x2="446" y2="290" stroke="black" />
<line x1="446" y1="216" x2="222" y2="290" stroke="black" />
<line x1="1021" y1="216" x2="478" y2="290" stroke="black" />
<line x1="446" y1="216" x2="254" y2="290" stroke="black" />
<line x1="1021" y1="216" x2="510" y2="290" stroke="black" />
<line x1="446" y1="216" x2="286" y2="290" stroke="black" />
<line x1="1021" y1="216" x2="542" y2="290" stroke="black" />
<line x1="446" y1="216" x2="318" y2="290" stroke="black" />
<line x1="1021" y1="216" x2="574" y2="290" stroke="black" />
<line x1="446" y1="216" x2="350" y2="290" stroke="black" />
<line x1="1021" y1="216" x2="606" y2="290" stroke="black" />
<line x1="478" y1="216" x2="126" y2="290" stroke="black" />
<line x1="1053" y1="216" x2="382" y2="290" stroke="black" />
<line x1="478" y1="216" x2="158" y2="290" stroke="black" />
<line x1="1053" y1="216" x2="414" y2="290" stroke="black" />
<line x1="478" y1="216" x2="190" y2="290" stroke="black" />
<line x1="1053" y1="216" x2="446" y2="290" stroke="black" />
<line x1="478" y1="216" x2="222" y2="290" stroke="black" />
<line x1="1053" y1="216" x2="478" y2="290" stroke="black" />
<line x1="478" y1="216" x2="254" y2="290" stroke="black" />
<line x1="1053" y1="216" x2="510" y2="290" stroke="black" />
<line x1="478" y1="216" x2="286" y2="290" stroke="black" />
<line x1="1053" y1="216" x2="542" y2="290" stroke="black" />
<line x1="478" y1="216" x2="318" y2="290" stroke="black" />
<line x1="1053" y1="216" x2="574" y2="290" stroke="black" />
<line x1="478" y1="216" x2="350" y2="290" stroke="black" />
<line x1="1053" y1="216" x2="606" y2="290" stroke="black" />
<line x1="510" y1="216" x2="126" y2="290" stroke="black" />
<line x1="1085" y1="216" x2="382" y2="290" stroke="black" />
<line x1="510" y1="216" x2="158" y2="290" stroke="black" />
<line x1="1085" y1="216" x2="414" y2="290" stroke="black" />
<line x1="510" y1="216" x2="190" y2="290" stroke="black" />
<line x1="1085" y1="216" x2="446" y2="290" stroke="black" />
<line x1="510" y1="216" x2="222" y2="290" stroke="black" />
<line x1="1085" y1="216" x2="478" y2="290" stroke="black" />
<line x1="510" y1="216" x2="254" y2="290" stroke="black" />
<line x1="1085" y1="216" x2="510" y2="290" stroke="black" />
<line x1="510" y1="216" x2="286" y2="290" stroke="black" />
<line x1="1085" y1="216" x2="542" y2="290" stroke="black" />
<line x1="510" y1="216" x2="318" y2="290" stroke="black" />
<line x1="1085" y1="216" x2="574" y2="290" stroke="black" />
<line x1="510" y1="216" x2="350" y2="290" stroke="black" />
<line x1="1085" y1="216" x2="606" y2="290" stroke="black" />
<line x1="542" y1="216" x2="126" y2="290" stroke="black" />
<line x1="1117" y1="216" x2="382" y2="290" stroke="black" />
<line x1="542" y1="216" x2="158" y2="290" stroke="black" />
<line x1="1117" y1="216" x2="414" y2="290" stroke="black" />
<line x1="542" y1="216" x2="190" y2="290" stroke="black" />
<line x1="1117" y1="216" x2="446" y2="290" stroke="black" />
<line x1="542" y1="216" x2="222" y2="290" stroke="black" />
<line x1="1117" y1="216" x2="478" y2="290" stroke="black" />
<line x1="542" y1="216" x2="254" y2="290" stroke="black" />
<line x1="1117" y1="216" x2="510" y2="290" stroke="black" />
<line x1="542" y1="216" x2="286" y2="290" stroke="black" />
<line x1="1117" y1="216" x2="542" y2="290" stroke="black" />
<line x1="542" y1="216" x2="318" y2="290" stroke="black" />
<line x1="1117" y1="216" x2="574" y2="290" stroke="black" />
<line x1="542" y1="216" x2="350" y2="290" stroke="black" />
<line x1="1117" y1="216" x2="606" y2="290" stroke="black" />
<line x1="574" y1="216" x2="126" y2="290" stroke="black" />
<line x1="1149" y1="216" x2="382" y2="290" stroke="black" />
<line x1="574" y1="216" x2="158" y2="290" stroke="black" />
<line x1="1149" y1="216" x2="414" y2="290" stroke="black" />
<line x1="574" y1="216" x2="190" y2="290" stroke="black" />
<line x1="1149" y1="216" x2="446" y2="290" stroke="black" />
<line x1="574" y1="216" x2="222" y2="290" stroke="black" />
<line x1="1149" y1="216" x2="478" y2="290" stroke="black" />
<line x1="574" y1="216" x2="254" y2="290" stroke="black" />
<line x1="1149" y1="216" x2="510" y2="290" stroke="black" />
<line x1="574" y1="216" x2="286" y2="290" stroke="black" />
<line x1="1149" y1="216" x2="542" y2="290" stroke="black" />
<line x1="574" y1="216" x2="318" y2="290" stroke="black" />
<line x1="1149" y1="216" x2="574" y2="290" stroke="black" />
<line x1="574" y1="216" x2="350" y2="290" stroke="black" />
<line x1="1149" y1="216" x2="606" y2="290" stroke="black" />
<line x1="606" y1="216" x2="126" y2="290" stroke="black" />
<line x1="1181" y1="216" x2="382" y2="290" stroke="black" />
<line x1="606" y1="216" x2="158" y2="290" stroke="black" />
<line x1="1181" y1="216" x2="414" y2="290" stroke="black" />
<line x1="606" y1="216" x2="190" y2="290" stroke="black" />
<line x1="1181" y1="216" x2="446" y2="290" stroke="black" />
<line x1="606" y1="216" x2="222" y2="290" stroke="black" />
<line x1="1181" y1="216" x2="478" y2="290" stroke="black" />
<line x1="606" y1="216" x2="254" y2="290" stroke="black" />
<line x1="1181" y1="216" x2="510" y2="290" stroke="black" />
<line x1="606" y1="216" x2="286" y2="290" stroke="black" />
<line x1="1181" y1="216" x2="542" y2="290" stroke="black" />
<line x1="606" y1="216" x2="318" y2="290" stroke="black" />
<line x1="1181" y1="216" x2="574" y2="290" stroke="black" />
<line x1="606" y1="216" x2="350" y2="290" stroke="black" />
<line x1="1181" y1="216" x2="606" y2="290" stroke="black" />
<line x1="126" y1="316" x2="126" y2="390" stroke="black" />
<line x1="158" y1="316" x2="158" y2="390" stroke="black" />
<line x1="190" y1="316" x2="190" y2="390" stroke="black" />
<line x1="222" y1="316" x2="222" y2="390" stroke="black" />
<line x1="254" y1="316" x2="254" y2="390" stroke="black" />
<line x1="286" y1="316" x2="286" y2="390" stroke="black" />
<line x1="318" y1="316" x2="318" y2="390" stroke="black" />
<line x1="350" y1="316" x2="350" y2="390" stroke="black" />
<line x1="382" y1="316" x2="382" y2="390" stroke="black" />
<line x1="414" y1="316" x2="414" y2="390" stroke="black" />
<line x1="446" y1="316" x2="446" y2="390" stroke="black" />
<line x1="478" y1="316" x2="478" y2="390" stroke="black" />
<line x1="510" y1="316" x2="510" y2="390" stroke="black" />
<line x1="542" y1="316" x2="542" y2="390" stroke="black" />
<line x1="574" y1="316" x2="574" y2="390" stroke="black" />
<line x1="606" y1="316" x2="606" y2="390" stroke="black" />
</svg>
