<svg version="1.1"
     width="700" height="450"
     xmlns="http://www.w3.org/2000/svg">
<text x="20" y="100">(1)</text>
<text x="100" y="100" text-anchor="end" font-style="italic">a</text>
<text x="100" y="115" text-anchor="end">data</text>
<rect x="110" y="90" width="16" height="26" fill="white" stroke="blue" />
<text x="118" y="103" text-anchor="middle" dominant-baseline="middle">31</text>
<rect x="126" y="90" width="16" height="26" fill="white" stroke="blue" />
<text x="134" y="103" text-anchor="middle" dominant-baseline="middle">30</text>
<rect x="142" y="90" width="16" height="26" fill="white" stroke="blue" />
<text x="150" y="103" text-anchor="middle" dominant-baseline="middle">29</text>
<rect x="158" y="90" width="16" height="26" fill="white" stroke="blue" />
<text x="166" y="103" text-anchor="middle" dominant-baseline="middle">28</text>
<rect x="174" y="90" width="16" height="26" fill="white" stroke="blue" />
<text x="182" y="103" text-anchor="middle" dominant-baseline="middle">27</text>
<rect x="190" y="90" width="16" height="26" fill="white" stroke="blue" />
<text x="198" y="103" text-anchor="middle" dominant-baseline="middle">26</text>
<rect x="206" y="90" width="16" height="26" fill="white" stroke="blue" />
<text x="214" y="103" text-anchor="middle" dominant-baseline="middle">25</text>
<rect x="222" y="90" width="16" height="26" fill="white" stroke="blue" />
<text x="230" y="103" text-anchor="middle" dominant-baseline="middle">24</text>
<rect x="238" y="90" width="16" height="26" fill="white" stroke="blue" />
<text x="246" y="103" text-anchor="middle" dominant-baseline="middle">23</text>
<rect x="254" y="90" width="16" height="26" fill="white" stroke="blue" />
<text x="262" y="103" text-anchor="middle" dominant-baseline="middle">22</text>
<rect x="270" y="90" width="16" height="26" fill="white" stroke="blue" />
<text x="278" y="103" text-anchor="middle" dominant-baseline="middle">21</text>
<rect x="286" y="90" width="16" height="26" fill="white" stroke="blue" />
<text x="294" y="103" text-anchor="middle" dominant-baseline="middle">20</text>
<rect x="302" y="90" width="16" height="26" fill="white" stroke="blue" />
<text x="310" y="103" text-anchor="middle" dominant-baseline="middle">19</text>
<rect x="318" y="90" width="16" height="26" fill="white" stroke="blue" />
<text x="326" y="103" text-anchor="middle" dominant-baseline="middle">18</text>
<rect x="334" y="90" width="16" height="26" fill="white" stroke="blue" />
<text x="342" y="103" text-anchor="middle" dominant-baseline="middle">17</text>
<rect x="350" y="90" width="16" height="26" fill="white" stroke="blue" />
<text x="358" y="103" text-anchor="middle" dominant-baseline="middle">16</text>
<text x="110" y="80" text-anchor="begin">upper</text>
<text x="366" y="80" text-anchor="end">lower</text>
<text x="400" y="100" text-anchor="end" font-style="italic">b</text>
<text x="400" y="115" text-anchor="end">data</text>
<rect x="410" y="90" width="16" height="26" fill="white" stroke="blue" />
<text x="418" y="103" text-anchor="middle" dominant-baseline="middle">15</text>
<rect x="426" y="90" width="16" height="26" fill="white" stroke="blue" />
<text x="434" y="103" text-anchor="middle" dominant-baseline="middle">14</text>
<rect x="442" y="90" width="16" height="26" fill="white" stroke="blue" />
<text x="450" y="103" text-anchor="middle" dominant-baseline="middle">13</text>
<rect x="458" y="90" width="16" height="26" fill="white" stroke="blue" />
<text x="466" y="103" text-anchor="middle" dominant-baseline="middle">12</text>
<rect x="474" y="90" width="16" height="26" fill="white" stroke="blue" />
<text x="482" y="103" text-anchor="middle" dominant-baseline="middle">11</text>
<rect x="490" y="90" width="16" height="26" fill="white" stroke="blue" />
<text x="498" y="103" text-anchor="middle" dominant-baseline="middle">10</text>
<rect x="506" y="90" width="16" height="26" fill="white" stroke="blue" />
<text x="514" y="103" text-anchor="middle" dominant-baseline="middle">9</text>
<rect x="522" y="90" width="16" height="26" fill="white" stroke="blue" />
<text x="530" y="103" text-anchor="middle" dominant-baseline="middle">8</text>
<rect x="538" y="90" width="16" height="26" fill="white" stroke="blue" />
<text x="546" y="103" text-anchor="middle" dominant-baseline="middle">7</text>
<rect x="554" y="90" width="16" height="26" fill="white" stroke="blue" />
<text x="562" y="103" text-anchor="middle" dominant-baseline="middle">6</text>
<rect x="570" y="90" width="16" height="26" fill="white" stroke="blue" />
<text x="578" y="103" text-anchor="middle" dominant-baseline="middle">5</text>
<rect x="586" y="90" width="16" height="26" fill="white" stroke="blue" />
<text x="594" y="103" text-anchor="middle" dominant-baseline="middle">4</text>
<rect x="602" y="90" width="16" height="26" fill="white" stroke="blue" />
<text x="610" y="103" text-anchor="middle" dominant-baseline="middle">3</text>
<rect x="618" y="90" width="16" height="26" fill="white" stroke="blue" />
<text x="626" y="103" text-anchor="middle" dominant-baseline="middle">2</text>
<rect x="634" y="90" width="16" height="26" fill="white" stroke="blue" />
<text x="642" y="103" text-anchor="middle" dominant-baseline="middle">1</text>
<rect x="650" y="90" width="16" height="26" fill="white" stroke="blue" />
<text x="658" y="103" text-anchor="middle" dominant-baseline="middle">0</text>
<text x="410" y="80" text-anchor="begin">upper</text>
<text x="666" y="80" text-anchor="end">lower</text>
<text x="20" y="200">(2)</text>
<text x="100" y="200" text-anchor="end" font-style="italic">temp</text>
<text x="100" y="215" text-anchor="end">merged</text>
<rect x="110" y="190" width="16" height="26" fill="white" stroke="blue" />
<text x="118" y="203" text-anchor="middle" dominant-baseline="middle">31</text>
<rect x="126" y="190" width="16" height="26" fill="white" stroke="blue" />
<text x="134" y="203" text-anchor="middle" dominant-baseline="middle">30</text>
<rect x="142" y="190" width="16" height="26" fill="white" stroke="blue" />
<text x="150" y="203" text-anchor="middle" dominant-baseline="middle">29</text>
<rect x="158" y="190" width="16" height="26" fill="white" stroke="blue" />
<text x="166" y="203" text-anchor="middle" dominant-baseline="middle">28</text>
<rect x="174" y="190" width="16" height="26" fill="white" stroke="blue" />
<text x="182" y="203" text-anchor="middle" dominant-baseline="middle">27</text>
<rect x="190" y="190" width="16" height="26" fill="white" stroke="blue" />
<text x="198" y="203" text-anchor="middle" dominant-baseline="middle">26</text>
<rect x="206" y="190" width="16" height="26" fill="white" stroke="blue" />
<text x="214" y="203" text-anchor="middle" dominant-baseline="middle">25</text>
<rect x="222" y="190" width="16" height="26" fill="white" stroke="blue" />
<text x="230" y="203" text-anchor="middle" dominant-baseline="middle">24</text>
<rect x="238" y="190" width="16" height="26" fill="white" stroke="blue" />
<text x="246" y="203" text-anchor="middle" dominant-baseline="middle">23</text>
<rect x="254" y="190" width="16" height="26" fill="white" stroke="blue" />
<text x="262" y="203" text-anchor="middle" dominant-baseline="middle">22</text>
<rect x="270" y="190" width="16" height="26" fill="white" stroke="blue" />
<text x="278" y="203" text-anchor="middle" dominant-baseline="middle">21</text>
<rect x="286" y="190" width="16" height="26" fill="white" stroke="blue" />
<text x="294" y="203" text-anchor="middle" dominant-baseline="middle">20</text>
<rect x="302" y="190" width="16" height="26" fill="white" stroke="blue" />
<text x="310" y="203" text-anchor="middle" dominant-baseline="middle">19</text>
<rect x="318" y="190" width="16" height="26" fill="white" stroke="blue" />
<text x="326" y="203" text-anchor="middle" dominant-baseline="middle">18</text>
<rect x="334" y="190" width="16" height="26" fill="white" stroke="blue" />
<text x="342" y="203" text-anchor="middle" dominant-baseline="middle">17</text>
<rect x="350" y="190" width="16" height="26" fill="white" stroke="blue" />
<text x="358" y="203" text-anchor="middle" dominant-baseline="middle">16</text>
<rect x="366" y="190" width="16" height="26" fill="white" stroke="blue" />
<text x="374" y="203" text-anchor="middle" dominant-baseline="middle">15</text>
<rect x="382" y="190" width="16" height="26" fill="white" stroke="blue" />
<text x="390" y="203" text-anchor="middle" dominant-baseline="middle">14</text>
<rect x="398" y="190" width="16" height="26" fill="white" stroke="blue" />
<text x="406" y="203" text-anchor="middle" dominant-baseline="middle">13</text>
<rect x="414" y="190" width="16" height="26" fill="white" stroke="blue" />
<text x="422" y="203" text-anchor="middle" dominant-baseline="middle">12</text>
<rect x="430" y="190" width="16" height="26" fill="white" stroke="blue" />
<text x="438" y="203" text-anchor="middle" dominant-baseline="middle">11</text>
<rect x="446" y="190" width="16" height="26" fill="white" stroke="blue" />
<text x="454" y="203" text-anchor="middle" dominant-baseline="middle">10</text>
<rect x="462" y="190" width="16" height="26" fill="white" stroke="blue" />
<text x="470" y="203" text-anchor="middle" dominant-baseline="middle">9</text>
<rect x="478" y="190" width="16" height="26" fill="white" stroke="blue" />
<text x="486" y="203" text-anchor="middle" dominant-baseline="middle">8</text>
<rect x="494" y="190" width="16" height="26" fill="white" stroke="blue" />
<text x="502" y="203" text-anchor="middle" dominant-baseline="middle">7</text>
<rect x="510" y="190" width="16" height="26" fill="white" stroke="blue" />
<text x="518" y="203" text-anchor="middle" dominant-baseline="middle">6</text>
<rect x="526" y="190" width="16" height="26" fill="white" stroke="blue" />
<text x="534" y="203" text-anchor="middle" dominant-baseline="middle">5</text>
<rect x="542" y="190" width="16" height="26" fill="white" stroke="blue" />
<text x="550" y="203" text-anchor="middle" dominant-baseline="middle">4</text>
<rect x="558" y="190" width="16" height="26" fill="white" stroke="blue" />
<text x="566" y="203" text-anchor="middle" dominant-baseline="middle">3</text>
<rect x="574" y="190" width="16" height="26" fill="white" stroke="blue" />
<text x="582" y="203" text-anchor="middle" dominant-baseline="middle">2</text>
<rect x="590" y="190" width="16" height="26" fill="white" stroke="blue" />
<text x="598" y="203" text-anchor="middle" dominant-baseline="middle">1</text>
<rect x="606" y="190" width="16" height="26" fill="white" stroke="blue" />
<text x="614" y="203" text-anchor="middle" dominant-baseline="middle">0</text>
<text x="20" y="300">(3)</text>
<text x="100" y="300" text-anchor="end" font-style="italic">c</text>
<text x="100" y="315" text-anchor="end">indices</text>
<rect x="110" y="290" width="16" height="26" fill="white" stroke="blue" />
<rect x="126" y="290" width="16" height="26" fill="white" stroke="blue" />
<rect x="142" y="290" width="16" height="26" fill="white" stroke="blue" />
<rect x="158" y="290" width="16" height="26" fill="white" stroke="blue" />
<rect x="174" y="290" width="16" height="26" fill="white" stroke="blue" />
<rect x="190" y="290" width="16" height="26" fill="white" stroke="blue" />
<rect x="206" y="290" width="16" height="26" fill="white" stroke="blue" />
<rect x="222" y="290" width="16" height="26" fill="white" stroke="blue" />
<rect x="238" y="290" width="16" height="26" fill="white" stroke="blue" />
<rect x="254" y="290" width="16" height="26" fill="white" stroke="blue" />
<rect x="270" y="290" width="16" height="26" fill="white" stroke="blue" />
<rect x="286" y="290" width="16" height="26" fill="white" stroke="blue" />
<rect x="302" y="290" width="16" height="26" fill="white" stroke="blue" />
<rect x="318" y="290" width="16" height="26" fill="white" stroke="blue" />
<rect x="334" y="290" width="16" height="26" fill="white" stroke="blue" />
<rect x="350" y="290" width="16" height="26" fill="white" stroke="blue" />
<text x="20" y="400">(4)</text>
<text x="100" y="400" text-anchor="end" font-style="italic">ret</text>
<text x="100" y="415" text-anchor="end">returns</text>
<rect x="110" y="390" width="16" height="26" fill="white" stroke="blue" />
<rect x="126" y="390" width="16" height="26" fill="white" stroke="blue" />
<rect x="142" y="390" width="16" height="26" fill="white" stroke="blue" />
<rect x="158" y="390" width="16" height="26" fill="white" stroke="blue" />
<rect x="174" y="390" width="16" height="26" fill="white" stroke="blue" />
<rect x="190" y="390" width="16" height="26" fill="white" stroke="blue" />
<rect x="206" y="390" width="16" height="26" fill="white" stroke="blue" />
<rect x="222" y="390" width="16" height="26" fill="white" stroke="blue" />
<rect x="238" y="390" width="16" height="26" fill="white" stroke="blue" />
<rect x="254" y="390" width="16" height="26" fill="white" stroke="blue" />
<rect x="270" y="390" width="16" height="26" fill="white" stroke="blue" />
<rect x="286" y="390" width="16" height="26" fill="white" stroke="blue" />
<rect x="302" y="390" width="16" height="26" fill="white" stroke="blue" />
<rect x="318" y="390" width="16" height="26" fill="white" stroke="blue" />
<rect x="334" y="390" width="16" height="26" fill="white" stroke="blue" />
<rect x="350" y="390" width="16" height="26" fill="white" stroke="blue" />
<line x1="118" y1="116" x2="118" y2="190" stroke="black" />
<line x1="418" y1="116" x2="374" y2="190" stroke="black" />
<line x1="134" y1="116" x2="134" y2="190" stroke="black" />
<line x1="434" y1="116" x2="390" y2="190" stroke="black" />
<line x1="150" y1="116" x2="150" y2="190" stroke="black" />
<line x1="450" y1="116" x2="406" y2="190" stroke="black" />
<line x1="166" y1="116" x2="166" y2="190" stroke="black" />
<line x1="466" y1="116" x2="422" y2="190" stroke="black" />
<line x1="182" y1="116" x2="182" y2="190" stroke="black" />
<line x1="482" y1="116" x2="438" y2="190" stroke="black" />
<line x1="198" y1="116" x2="198" y2="190" stroke="black" />
<line x1="498" y1="116" x2="454" y2="190" stroke="black" />
<line x1="214" y1="116" x2="214" y2="190" stroke="black" />
<line x1="514" y1="116" x2="470" y2="190" stroke="black" />
<line x1="230" y1="116" x2="230" y2="190" stroke="black" />
<line x1="530" y1="116" x2="486" y2="190" stroke="black" />
<line x1="246" y1="116" x2="246" y2="190" stroke="black" />
<line x1="546" y1="116" x2="502" y2="190" stroke="black" />
<line x1="262" y1="116" x2="262" y2="190" stroke="black" />
<line x1="562" y1="116" x2="518" y2="190" stroke="black" />
<line x1="278" y1="116" x2="278" y2="190" stroke="black" />
<line x1="578" y1="116" x2="534" y2="190" stroke="black" />
<line x1="294" y1="116" x2="294" y2="190" stroke="black" />
<line x1="594" y1="116" x2="550" y2="190" stroke="black" />
<line x1="310" y1="116" x2="310" y2="190" stroke="black" />
<line x1="610" y1="116" x2="566" y2="190" stroke="black" />
<line x1="326" y1="116" x2="326" y2="190" stroke="black" />
<line x1="626" y1="116" x2="582" y2="190" stroke="black" />
<line x1="342" y1="116" x2="342" y2="190" stroke="black" />
<line x1="642" y1="116" x2="598" y2="190" stroke="black" />
<line x1="358" y1="116" x2="358" y2="190" stroke="black" />
<line x1="658" y1="116" x2="614" y2="190" stroke="black" />
<line x1="118" y1="216" x2="118" y2="290" stroke="black" />
<line x1="118" y1="216" x2="134" y2="290" stroke="black" />
<line x1="118" y1="216" x2="150" y2="290" stroke="black" />
<line x1="118" y1="216" x2="166" y2="290" stroke="black" />
<line x1="118" y1="216" x2="182" y2="290" stroke="black" />
<line x1="118" y1="216" x2="198" y2="290" stroke="black" />
<line x1="118" y1="216" x2="214" y2="290" stroke="black" />
<line x1="118" y1="216" x2="230" y2="290" stroke="black" />
<line x1="118" y1="216" x2="246" y2="290" stroke="black" />
<line x1="118" y1="216" x2="262" y2="290" stroke="black" />
<line x1="118" y1="216" x2="278" y2="290" stroke="black" />
<line x1="118" y1="216" x2="294" y2="290" stroke="black" />
<line x1="118" y1="216" x2="310" y2="290" stroke="black" />
<line x1="118" y1="216" x2="326" y2="290" stroke="black" />
<line x1="118" y1="216" x2="342" y2="290" stroke="black" />
<line x1="118" y1="216" x2="358" y2="290" stroke="black" />
<line x1="134" y1="216" x2="118" y2="290" stroke="black" />
<line x1="134" y1="216" x2="134" y2="290" stroke="black" />
<line x1="134" y1="216" x2="150" y2="290" stroke="black" />
<line x1="134" y1="216" x2="166" y2="290" stroke="black" />
<line x1="134" y1="216" x2="182" y2="290" stroke="black" />
<line x1="134" y1="216" x2="198" y2="290" stroke="black" />
<line x1="134" y1="216" x2="214" y2="290" stroke="black" />
<line x1="134" y1="216" x2="230" y2="290" stroke="black" />
<line x1="134" y1="216" x2="246" y2="290" stroke="black" />
<line x1="134" y1="216" x2="262" y2="290" stroke="black" />
<line x1="134" y1="216" x2="278" y2="290" stroke="black" />
<line x1="134" y1="216" x2="294" y2="290" stroke="black" />
<line x1="134" y1="216" x2="310" y2="290" stroke="black" />
<line x1="134" y1="216" x2="326" y2="290" stroke="black" />
<line x1="134" y1="216" x2="342" y2="290" stroke="black" />
<line x1="134" y1="216" x2="358" y2="290" stroke="black" />
<line x1="150" y1="216" x2="118" y2="290" stroke="black" />
<line x1="150" y1="216" x2="134" y2="290" stroke="black" />
<line x1="150" y1="216" x2="150" y2="290" stroke="black" />
<line x1="150" y1="216" x2="166" y2="290" stroke="black" />
<line x1="150" y1="216" x2="182" y2="290" stroke="black" />
<line x1="150" y1="216" x2="198" y2="290" stroke="black" />
<line x1="150" y1="216" x2="214" y2="290" stroke="black" />
<line x1="150" y1="216" x2="230" y2="290" stroke="black" />
<line x1="150" y1="216" x2="246" y2="290" stroke="black" />
<line x1="150" y1="216" x2="262" y2="290" stroke="black" />
<line x1="150" y1="216" x2="278" y2="290" stroke="black" />
<line x1="150" y1="216" x2="294" y2="290" stroke="black" />
<line x1="150" y1="216" x2="310" y2="290" stroke="black" />
<line x1="150" y1="216" x2="326" y2="290" stroke="black" />
<line x1="150" y1="216" x2="342" y2="290" stroke="black" />
<line x1="150" y1="216" x2="358" y2="290" stroke="black" />
<line x1="166" y1="216" x2="118" y2="290" stroke="black" />
<line x1="166" y1="216" x2="134" y2="290" stroke="black" />
<line x1="166" y1="216" x2="150" y2="290" stroke="black" />
<line x1="166" y1="216" x2="166" y2="290" stroke="black" />
<line x1="166" y1="216" x2="182" y2="290" stroke="black" />
<line x1="166" y1="216" x2="198" y2="290" stroke="black" />
<line x1="166" y1="216" x2="214" y2="290" stroke="black" />
<line x1="166" y1="216" x2="230" y2="290" stroke="black" />
<line x1="166" y1="216" x2="246" y2="290" stroke="black" />
<line x1="166" y1="216" x2="262" y2="290" stroke="black" />
<line x1="166" y1="216" x2="278" y2="290" stroke="black" />
<line x1="166" y1="216" x2="294" y2="290" stroke="black" />
<line x1="166" y1="216" x2="310" y2="290" stroke="black" />
<line x1="166" y1="216" x2="326" y2="290" stroke="black" />
<line x1="166" y1="216" x2="342" y2="290" stroke="black" />
<line x1="166" y1="216" x2="358" y2="290" stroke="black" />
<line x1="182" y1="216" x2="118" y2="290" stroke="black" />
<line x1="182" y1="216" x2="134" y2="290" stroke="black" />
<line x1="182" y1="216" x2="150" y2="290" stroke="black" />
<line x1="182" y1="216" x2="166" y2="290" stroke="black" />
<line x1="182" y1="216" x2="182" y2="290" stroke="black" />
<line x1="182" y1="216" x2="198" y2="290" stroke="black" />
<line x1="182" y1="216" x2="214" y2="290" stroke="black" />
<line x1="182" y1="216" x2="230" y2="290" stroke="black" />
<line x1="182" y1="216" x2="246" y2="290" stroke="black" />
<line x1="182" y1="216" x2="262" y2="290" stroke="black" />
<line x1="182" y1="216" x2="278" y2="290" stroke="black" />
<line x1="182" y1="216" x2="294" y2="290" stroke="black" />
<line x1="182" y1="216" x2="310" y2="290" stroke="black" />
<line x1="182" y1="216" x2="326" y2="290" stroke="black" />
<line x1="182" y1="216" x2="342" y2="290" stroke="black" />
<line x1="182" y1="216" x2="358" y2="290" stroke="black" />
<line x1="198" y1="216" x2="118" y2="290" stroke="black" />
<line x1="198" y1="216" x2="134" y2="290" stroke="black" />
<line x1="198" y1="216" x2="150" y2="290" stroke="black" />
<line x1="198" y1="216" x2="166" y2="290" stroke="black" />
<line x1="198" y1="216" x2="182" y2="290" stroke="black" />
<line x1="198" y1="216" x2="198" y2="290" stroke="black" />
<line x1="198" y1="216" x2="214" y2="290" stroke="black" />
<line x1="198" y1="216" x2="230" y2="290" stroke="black" />
<line x1="198" y1="216" x2="246" y2="290" stroke="black" />
<line x1="198" y1="216" x2="262" y2="290" stroke="black" />
<line x1="198" y1="216" x2="278" y2="290" stroke="black" />
<line x1="198" y1="216" x2="294" y2="290" stroke="black" />
<line x1="198" y1="216" x2="310" y2="290" stroke="black" />
<line x1="198" y1="216" x2="326" y2="290" stroke="black" />
<line x1="198" y1="216" x2="342" y2="290" stroke="black" />
<line x1="198" y1="216" x2="358" y2="290" stroke="black" />
<line x1="214" y1="216" x2="118" y2="290" stroke="black" />
<line x1="214" y1="216" x2="134" y2="290" stroke="black" />
<line x1="214" y1="216" x2="150" y2="290" stroke="black" />
<line x1="214" y1="216" x2="166" y2="290" stroke="black" />
<line x1="214" y1="216" x2="182" y2="290" stroke="black" />
<line x1="214" y1="216" x2="198" y2="290" stroke="black" />
<line x1="214" y1="216" x2="214" y2="290" stroke="black" />
<line x1="214" y1="216" x2="230" y2="290" stroke="black" />
<line x1="214" y1="216" x2="246" y2="290" stroke="black" />
<line x1="214" y1="216" x2="262" y2="290" stroke="black" />
<line x1="214" y1="216" x2="278" y2="290" stroke="black" />
<line x1="214" y1="216" x2="294" y2="290" stroke="black" />
<line x1="214" y1="216" x2="310" y2="290" stroke="black" />
<line x1="214" y1="216" x2="326" y2="290" stroke="black" />
<line x1="214" y1="216" x2="342" y2="290" stroke="black" />
<line x1="214" y1="216" x2="358" y2="290" stroke="black" />
<line x1="230" y1="216" x2="118" y2="290" stroke="black" />
<line x1="230" y1="216" x2="134" y2="290" stroke="black" />
<line x1="230" y1="216" x2="150" y2="290" stroke="black" />
<line x1="230" y1="216" x2="166" y2="290" stroke="black" />
<line x1="230" y1="216" x2="182" y2="290" stroke="black" />
<line x1="230" y1="216" x2="198" y2="290" stroke="black" />
<line x1="230" y1="216" x2="214" y2="290" stroke="black" />
<line x1="230" y1="216" x2="230" y2="290" stroke="black" />
<line x1="230" y1="216" x2="246" y2="290" stroke="black" />
<line x1="230" y1="216" x2="262" y2="290" stroke="black" />
<line x1="230" y1="216" x2="278" y2="290" stroke="black" />
<line x1="230" y1="216" x2="294" y2="290" stroke="black" />
<line x1="230" y1="216" x2="310" y2="290" stroke="black" />
<line x1="230" y1="216" x2="326" y2="290" stroke="black" />
<line x1="230" y1="216" x2="342" y2="290" stroke="black" />
<line x1="230" y1="216" x2="358" y2="290" stroke="black" />
<line x1="246" y1="216" x2="118" y2="290" stroke="black" />
<line x1="246" y1="216" x2="134" y2="290" stroke="black" />
<line x1="246" y1="216" x2="150" y2="290" stroke="black" />
<line x1="246" y1="216" x2="166" y2="290" stroke="black" />
<line x1="246" y1="216" x2="182" y2="290" stroke="black" />
<line x1="246" y1="216" x2="198" y2="290" stroke="black" />
<line x1="246" y1="216" x2="214" y2="290" stroke="black" />
<line x1="246" y1="216" x2="230" y2="290" stroke="black" />
<line x1="246" y1="216" x2="246" y2="290" stroke="black" />
<line x1="246" y1="216" x2="262" y2="290" stroke="black" />
<line x1="246" y1="216" x2="278" y2="290" stroke="black" />
<line x1="246" y1="216" x2="294" y2="290" stroke="black" />
<line x1="246" y1="216" x2="310" y2="290" stroke="black" />
<line x1="246" y1="216" x2="326" y2="290" stroke="black" />
<line x1="246" y1="216" x2="342" y2="290" stroke="black" />
<line x1="246" y1="216" x2="358" y2="290" stroke="black" />
<line x1="262" y1="216" x2="118" y2="290" stroke="black" />
<line x1="262" y1="216" x2="134" y2="290" stroke="black" />
<line x1="262" y1="216" x2="150" y2="290" stroke="black" />
<line x1="262" y1="216" x2="166" y2="290" stroke="black" />
<line x1="262" y1="216" x2="182" y2="290" stroke="black" />
<line x1="262" y1="216" x2="198" y2="290" stroke="black" />
<line x1="262" y1="216" x2="214" y2="290" stroke="black" />
<line x1="262" y1="216" x2="230" y2="290" stroke="black" />
<line x1="262" y1="216" x2="246" y2="290" stroke="black" />
<line x1="262" y1="216" x2="262" y2="290" stroke="black" />
<line x1="262" y1="216" x2="278" y2="290" stroke="black" />
<line x1="262" y1="216" x2="294" y2="290" stroke="black" />
<line x1="262" y1="216" x2="310" y2="290" stroke="black" />
<line x1="262" y1="216" x2="326" y2="290" stroke="black" />
<line x1="262" y1="216" x2="342" y2="290" stroke="black" />
<line x1="262" y1="216" x2="358" y2="290" stroke="black" />
<line x1="278" y1="216" x2="118" y2="290" stroke="black" />
<line x1="278" y1="216" x2="134" y2="290" stroke="black" />
<line x1="278" y1="216" x2="150" y2="290" stroke="black" />
<line x1="278" y1="216" x2="166" y2="290" stroke="black" />
<line x1="278" y1="216" x2="182" y2="290" stroke="black" />
<line x1="278" y1="216" x2="198" y2="290" stroke="black" />
<line x1="278" y1="216" x2="214" y2="290" stroke="black" />
<line x1="278" y1="216" x2="230" y2="290" stroke="black" />
<line x1="278" y1="216" x2="246" y2="290" stroke="black" />
<line x1="278" y1="216" x2="262" y2="290" stroke="black" />
<line x1="278" y1="216" x2="278" y2="290" stroke="black" />
<line x1="278" y1="216" x2="294" y2="290" stroke="black" />
<line x1="278" y1="216" x2="310" y2="290" stroke="black" />
<line x1="278" y1="216" x2="326" y2="290" stroke="black" />
<line x1="278" y1="216" x2="342" y2="290" stroke="black" />
<line x1="278" y1="216" x2="358" y2="290" stroke="black" />
<line x1="294" y1="216" x2="118" y2="290" stroke="black" />
<line x1="294" y1="216" x2="134" y2="290" stroke="black" />
<line x1="294" y1="216" x2="150" y2="290" stroke="black" />
<line x1="294" y1="216" x2="166" y2="290" stroke="black" />
<line x1="294" y1="216" x2="182" y2="290" stroke="black" />
<line x1="294" y1="216" x2="198" y2="290" stroke="black" />
<line x1="294" y1="216" x2="214" y2="290" stroke="black" />
<line x1="294" y1="216" x2="230" y2="290" stroke="black" />
<line x1="294" y1="216" x2="246" y2="290" stroke="black" />
<line x1="294" y1="216" x2="262" y2="290" stroke="black" />
<line x1="294" y1="216" x2="278" y2="290" stroke="black" />
<line x1="294" y1="216" x2="294" y2="290" stroke="black" />
<line x1="294" y1="216" x2="310" y2="290" stroke="black" />
<line x1="294" y1="216" x2="326" y2="290" stroke="black" />
<line x1="294" y1="216" x2="342" y2="290" stroke="black" />
<line x1="294" y1="216" x2="358" y2="290" stroke="black" />
<line x1="310" y1="216" x2="118" y2="290" stroke="black" />
<line x1="310" y1="216" x2="134" y2="290" stroke="black" />
<line x1="310" y1="216" x2="150" y2="290" stroke="black" />
<line x1="310" y1="216" x2="166" y2="290" stroke="black" />
<line x1="310" y1="216" x2="182" y2="290" stroke="black" />
<line x1="310" y1="216" x2="198" y2="290" stroke="black" />
<line x1="310" y1="216" x2="214" y2="290" stroke="black" />
<line x1="310" y1="216" x2="230" y2="290" stroke="black" />
<line x1="310" y1="216" x2="246" y2="290" stroke="black" />
<line x1="310" y1="216" x2="262" y2="290" stroke="black" />
<line x1="310" y1="216" x2="278" y2="290" stroke="black" />
<line x1="310" y1="216" x2="294" y2="290" stroke="black" />
<line x1="310" y1="216" x2="310" y2="290" stroke="black" />
<line x1="310" y1="216" x2="326" y2="290" stroke="black" />
<line x1="310" y1="216" x2="342" y2="290" stroke="black" />
<line x1="310" y1="216" x2="358" y2="290" stroke="black" />
<line x1="326" y1="216" x2="118" y2="290" stroke="black" />
<line x1="326" y1="216" x2="134" y2="290" stroke="black" />
<line x1="326" y1="216" x2="150" y2="290" stroke="black" />
<line x1="326" y1="216" x2="166" y2="290" stroke="black" />
<line x1="326" y1="216" x2="182" y2="290" stroke="black" />
<line x1="326" y1="216" x2="198" y2="290" stroke="black" />
<line x1="326" y1="216" x2="214" y2="290" stroke="black" />
<line x1="326" y1="216" x2="230" y2="290" stroke="black" />
<line x1="326" y1="216" x2="246" y2="290" stroke="black" />
<line x1="326" y1="216" x2="262" y2="290" stroke="black" />
<line x1="326" y1="216" x2="278" y2="290" stroke="black" />
<line x1="326" y1="216" x2="294" y2="290" stroke="black" />
<line x1="326" y1="216" x2="310" y2="290" stroke="black" />
<line x1="326" y1="216" x2="326" y2="290" stroke="black" />
<line x1="326" y1="216" x2="342" y2="290" stroke="black" />
<line x1="326" y1="216" x2="358" y2="290" stroke="black" />
<line x1="342" y1="216" x2="118" y2="290" stroke="black" />
<line x1="342" y1="216" x2="134" y2="290" stroke="black" />
<line x1="342" y1="216" x2="150" y2="290" stroke="black" />
<line x1="342" y1="216" x2="166" y2="290" stroke="black" />
<line x1="342" y1="216" x2="182" y2="290" stroke="black" />
<line x1="342" y1="216" x2="198" y2="290" stroke="black" />
<line x1="342" y1="216" x2="214" y2="290" stroke="black" />
<line x1="342" y1="216" x2="230" y2="290" stroke="black" />
<line x1="342" y1="216" x2="246" y2="290" stroke="black" />
<line x1="342" y1="216" x2="262" y2="290" stroke="black" />
<line x1="342" y1="216" x2="278" y2="290" stroke="black" />
<line x1="342" y1="216" x2="294" y2="290" stroke="black" />
<line x1="342" y1="216" x2="310" y2="290" stroke="black" />
<line x1="342" y1="216" x2="326" y2="290" stroke="black" />
<line x1="342" y1="216" x2="342" y2="290" stroke="black" />
<line x1="342" y1="216" x2="358" y2="290" stroke="black" />
<line x1="358" y1="216" x2="118" y2="290" stroke="black" />
<line x1="358" y1="216" x2="134" y2="290" stroke="black" />
<line x1="358" y1="216" x2="150" y2="290" stroke="black" />
<line x1="358" y1="216" x2="166" y2="290" stroke="black" />
<line x1="358" y1="216" x2="182" y2="290" stroke="black" />
<line x1="358" y1="216" x2="198" y2="290" stroke="black" />
<line x1="358" y1="216" x2="214" y2="290" stroke="black" />
<line x1="358" y1="216" x2="230" y2="290" stroke="black" />
<line x1="358" y1="216" x2="246" y2="290" stroke="black" />
<line x1="358" y1="216" x2="262" y2="290" stroke="black" />
<line x1="358" y1="216" x2="278" y2="290" stroke="black" />
<line x1="358" y1="216" x2="294" y2="290" stroke="black" />
<line x1="358" y1="216" x2="310" y2="290" stroke="black" />
<line x1="358" y1="216" x2="326" y2="290" stroke="black" />
<line x1="358" y1="216" x2="342" y2="290" stroke="black" />
<line x1="358" y1="216" x2="358" y2="290" stroke="black" />
<line x1="374" y1="216" x2="118" y2="290" stroke="black" />
<line x1="374" y1="216" x2="134" y2="290" stroke="black" />
<line x1="374" y1="216" x2="150" y2="290" stroke="black" />
<line x1="374" y1="216" x2="166" y2="290" stroke="black" />
<line x1="374" y1="216" x2="182" y2="290" stroke="black" />
<line x1="374" y1="216" x2="198" y2="290" stroke="black" />
<line x1="374" y1="216" x2="214" y2="290" stroke="black" />
<line x1="374" y1="216" x2="230" y2="290" stroke="black" />
<line x1="374" y1="216" x2="246" y2="290" stroke="black" />
<line x1="374" y1="216" x2="262" y2="290" stroke="black" />
<line x1="374" y1="216" x2="278" y2="290" stroke="black" />
<line x1="374" y1="216" x2="294" y2="290" stroke="black" />
<line x1="374" y1="216" x2="310" y2="290" stroke="black" />
<line x1="374" y1="216" x2="326" y2="290" stroke="black" />
<line x1="374" y1="216" x2="342" y2="290" stroke="black" />
<line x1="374" y1="216" x2="358" y2="290" stroke="black" />
<line x1="390" y1="216" x2="118" y2="290" stroke="black" />
<line x1="390" y1="216" x2="134" y2="290" stroke="black" />
<line x1="390" y1="216" x2="150" y2="290" stroke="black" />
<line x1="390" y1="216" x2="166" y2="290" stroke="black" />
<line x1="390" y1="216" x2="182" y2="290" stroke="black" />
<line x1="390" y1="216" x2="198" y2="290" stroke="black" />
<line x1="390" y1="216" x2="214" y2="290" stroke="black" />
<line x1="390" y1="216" x2="230" y2="290" stroke="black" />
<line x1="390" y1="216" x2="246" y2="290" stroke="black" />
<line x1="390" y1="216" x2="262" y2="290" stroke="black" />
<line x1="390" y1="216" x2="278" y2="290" stroke="black" />
<line x1="390" y1="216" x2="294" y2="290" stroke="black" />
<line x1="390" y1="216" x2="310" y2="290" stroke="black" />
<line x1="390" y1="216" x2="326" y2="290" stroke="black" />
<line x1="390" y1="216" x2="342" y2="290" stroke="black" />
<line x1="390" y1="216" x2="358" y2="290" stroke="black" />
<line x1="406" y1="216" x2="118" y2="290" stroke="black" />
<line x1="406" y1="216" x2="134" y2="290" stroke="black" />
<line x1="406" y1="216" x2="150" y2="290" stroke="black" />
<line x1="406" y1="216" x2="166" y2="290" stroke="black" />
<line x1="406" y1="216" x2="182" y2="290" stroke="black" />
<line x1="406" y1="216" x2="198" y2="290" stroke="black" />
<line x1="406" y1="216" x2="214" y2="290" stroke="black" />
<line x1="406" y1="216" x2="230" y2="290" stroke="black" />
<line x1="406" y1="216" x2="246" y2="290" stroke="black" />
<line x1="406" y1="216" x2="262" y2="290" stroke="black" />
<line x1="406" y1="216" x2="278" y2="290" stroke="black" />
<line x1="406" y1="216" x2="294" y2="290" stroke="black" />
<line x1="406" y1="216" x2="310" y2="290" stroke="black" />
<line x1="406" y1="216" x2="326" y2="290" stroke="black" />
<line x1="406" y1="216" x2="342" y2="290" stroke="black" />
<line x1="406" y1="216" x2="358" y2="290" stroke="black" />
<line x1="422" y1="216" x2="118" y2="290" stroke="black" />
<line x1="422" y1="216" x2="134" y2="290" stroke="black" />
<line x1="422" y1="216" x2="150" y2="290" stroke="black" />
<line x1="422" y1="216" x2="166" y2="290" stroke="black" />
<line x1="422" y1="216" x2="182" y2="290" stroke="black" />
<line x1="422" y1="216" x2="198" y2="290" stroke="black" />
<line x1="422" y1="216" x2="214" y2="290" stroke="black" />
<line x1="422" y1="216" x2="230" y2="290" stroke="black" />
<line x1="422" y1="216" x2="246" y2="290" stroke="black" />
<line x1="422" y1="216" x2="262" y2="290" stroke="black" />
<line x1="422" y1="216" x2="278" y2="290" stroke="black" />
<line x1="422" y1="216" x2="294" y2="290" stroke="black" />
<line x1="422" y1="216" x2="310" y2="290" stroke="black" />
<line x1="422" y1="216" x2="326" y2="290" stroke="black" />
<line x1="422" y1="216" x2="342" y2="290" stroke="black" />
<line x1="422" y1="216" x2="358" y2="290" stroke="black" />
<line x1="438" y1="216" x2="118" y2="290" stroke="black" />
<line x1="438" y1="216" x2="134" y2="290" stroke="black" />
<line x1="438" y1="216" x2="150" y2="290" stroke="black" />
<line x1="438" y1="216" x2="166" y2="290" stroke="black" />
<line x1="438" y1="216" x2="182" y2="290" stroke="black" />
<line x1="438" y1="216" x2="198" y2="290" stroke="black" />
<line x1="438" y1="216" x2="214" y2="290" stroke="black" />
<line x1="438" y1="216" x2="230" y2="290" stroke="black" />
<line x1="438" y1="216" x2="246" y2="290" stroke="black" />
<line x1="438" y1="216" x2="262" y2="290" stroke="black" />
<line x1="438" y1="216" x2="278" y2="290" stroke="black" />
<line x1="438" y1="216" x2="294" y2="290" stroke="black" />
<line x1="438" y1="216" x2="310" y2="290" stroke="black" />
<line x1="438" y1="216" x2="326" y2="290" stroke="black" />
<line x1="438" y1="216" x2="342" y2="290" stroke="black" />
<line x1="438" y1="216" x2="358" y2="290" stroke="black" />
<line x1="454" y1="216" x2="118" y2="290" stroke="black" />
<line x1="454" y1="216" x2="134" y2="290" stroke="black" />
<line x1="454" y1="216" x2="150" y2="290" stroke="black" />
<line x1="454" y1="216" x2="166" y2="290" stroke="black" />
<line x1="454" y1="216" x2="182" y2="290" stroke="black" />
<line x1="454" y1="216" x2="198" y2="290" stroke="black" />
<line x1="454" y1="216" x2="214" y2="290" stroke="black" />
<line x1="454" y1="216" x2="230" y2="290" stroke="black" />
<line x1="454" y1="216" x2="246" y2="290" stroke="black" />
<line x1="454" y1="216" x2="262" y2="290" stroke="black" />
<line x1="454" y1="216" x2="278" y2="290" stroke="black" />
<line x1="454" y1="216" x2="294" y2="290" stroke="black" />
<line x1="454" y1="216" x2="310" y2="290" stroke="black" />
<line x1="454" y1="216" x2="326" y2="290" stroke="black" />
<line x1="454" y1="216" x2="342" y2="290" stroke="black" />
<line x1="454" y1="216" x2="358" y2="290" stroke="black" />
<line x1="470" y1="216" x2="118" y2="290" stroke="black" />
<line x1="470" y1="216" x2="134" y2="290" stroke="black" />
<line x1="470" y1="216" x2="150" y2="290" stroke="black" />
<line x1="470" y1="216" x2="166" y2="290" stroke="black" />
<line x1="470" y1="216" x2="182" y2="290" stroke="black" />
<line x1="470" y1="216" x2="198" y2="290" stroke="black" />
<line x1="470" y1="216" x2="214" y2="290" stroke="black" />
<line x1="470" y1="216" x2="230" y2="290" stroke="black" />
<line x1="470" y1="216" x2="246" y2="290" stroke="black" />
<line x1="470" y1="216" x2="262" y2="290" stroke="black" />
<line x1="470" y1="216" x2="278" y2="290" stroke="black" />
<line x1="470" y1="216" x2="294" y2="290" stroke="black" />
<line x1="470" y1="216" x2="310" y2="290" stroke="black" />
<line x1="470" y1="216" x2="326" y2="290" stroke="black" />
<line x1="470" y1="216" x2="342" y2="290" stroke="black" />
<line x1="470" y1="216" x2="358" y2="290" stroke="black" />
<line x1="486" y1="216" x2="118" y2="290" stroke="black" />
<line x1="486" y1="216" x2="134" y2="290" stroke="black" />
<line x1="486" y1="216" x2="150" y2="290" stroke="black" />
<line x1="486" y1="216" x2="166" y2="290" stroke="black" />
<line x1="486" y1="216" x2="182" y2="290" stroke="black" />
<line x1="486" y1="216" x2="198" y2="290" stroke="black" />
<line x1="486" y1="216" x2="214" y2="290" stroke="black" />
<line x1="486" y1="216" x2="230" y2="290" stroke="black" />
<line x1="486" y1="216" x2="246" y2="290" stroke="black" />
<line x1="486" y1="216" x2="262" y2="290" stroke="black" />
<line x1="486" y1="216" x2="278" y2="290" stroke="black" />
<line x1="486" y1="216" x2="294" y2="290" stroke="black" />
<line x1="486" y1="216" x2="310" y2="290" stroke="black" />
<line x1="486" y1="216" x2="326" y2="290" stroke="black" />
<line x1="486" y1="216" x2="342" y2="290" stroke="black" />
<line x1="486" y1="216" x2="358" y2="290" stroke="black" />
<line x1="502" y1="216" x2="118" y2="290" stroke="black" />
<line x1="502" y1="216" x2="134" y2="290" stroke="black" />
<line x1="502" y1="216" x2="150" y2="290" stroke="black" />
<line x1="502" y1="216" x2="166" y2="290" stroke="black" />
<line x1="502" y1="216" x2="182" y2="290" stroke="black" />
<line x1="502" y1="216" x2="198" y2="290" stroke="black" />
<line x1="502" y1="216" x2="214" y2="290" stroke="black" />
<line x1="502" y1="216" x2="230" y2="290" stroke="black" />
<line x1="502" y1="216" x2="246" y2="290" stroke="black" />
<line x1="502" y1="216" x2="262" y2="290" stroke="black" />
<line x1="502" y1="216" x2="278" y2="290" stroke="black" />
<line x1="502" y1="216" x2="294" y2="290" stroke="black" />
<line x1="502" y1="216" x2="310" y2="290" stroke="black" />
<line x1="502" y1="216" x2="326" y2="290" stroke="black" />
<line x1="502" y1="216" x2="342" y2="290" stroke="black" />
<line x1="502" y1="216" x2="358" y2="290" stroke="black" />
<line x1="518" y1="216" x2="118" y2="290" stroke="black" />
<line x1="518" y1="216" x2="134" y2="290" stroke="black" />
<line x1="518" y1="216" x2="150" y2="290" stroke="black" />
<line x1="518" y1="216" x2="166" y2="290" stroke="black" />
<line x1="518" y1="216" x2="182" y2="290" stroke="black" />
<line x1="518" y1="216" x2="198" y2="290" stroke="black" />
<line x1="518" y1="216" x2="214" y2="290" stroke="black" />
<line x1="518" y1="216" x2="230" y2="290" stroke="black" />
<line x1="518" y1="216" x2="246" y2="290" stroke="black" />
<line x1="518" y1="216" x2="262" y2="290" stroke="black" />
<line x1="518" y1="216" x2="278" y2="290" stroke="black" />
<line x1="518" y1="216" x2="294" y2="290" stroke="black" />
<line x1="518" y1="216" x2="310" y2="290" stroke="black" />
<line x1="518" y1="216" x2="326" y2="290" stroke="black" />
<line x1="518" y1="216" x2="342" y2="290" stroke="black" />
<line x1="518" y1="216" x2="358" y2="290" stroke="black" />
<line x1="534" y1="216" x2="118" y2="290" stroke="black" />
<line x1="534" y1="216" x2="134" y2="290" stroke="black" />
<line x1="534" y1="216" x2="150" y2="290" stroke="black" />
<line x1="534" y1="216" x2="166" y2="290" stroke="black" />
<line x1="534" y1="216" x2="182" y2="290" stroke="black" />
<line x1="534" y1="216" x2="198" y2="290" stroke="black" />
<line x1="534" y1="216" x2="214" y2="290" stroke="black" />
<line x1="534" y1="216" x2="230" y2="290" stroke="black" />
<line x1="534" y1="216" x2="246" y2="290" stroke="black" />
<line x1="534" y1="216" x2="262" y2="290" stroke="black" />
<line x1="534" y1="216" x2="278" y2="290" stroke="black" />
<line x1="534" y1="216" x2="294" y2="290" stroke="black" />
<line x1="534" y1="216" x2="310" y2="290" stroke="black" />
<line x1="534" y1="216" x2="326" y2="290" stroke="black" />
<line x1="534" y1="216" x2="342" y2="290" stroke="black" />
<line x1="534" y1="216" x2="358" y2="290" stroke="black" />
<line x1="550" y1="216" x2="118" y2="290" stroke="black" />
<line x1="550" y1="216" x2="134" y2="290" stroke="black" />
<line x1="550" y1="216" x2="150" y2="290" stroke="black" />
<line x1="550" y1="216" x2="166" y2="290" stroke="black" />
<line x1="550" y1="216" x2="182" y2="290" stroke="black" />
<line x1="550" y1="216" x2="198" y2="290" stroke="black" />
<line x1="550" y1="216" x2="214" y2="290" stroke="black" />
<line x1="550" y1="216" x2="230" y2="290" stroke="black" />
<line x1="550" y1="216" x2="246" y2="290" stroke="black" />
<line x1="550" y1="216" x2="262" y2="290" stroke="black" />
<line x1="550" y1="216" x2="278" y2="290" stroke="black" />
<line x1="550" y1="216" x2="294" y2="290" stroke="black" />
<line x1="550" y1="216" x2="310" y2="290" stroke="black" />
<line x1="550" y1="216" x2="326" y2="290" stroke="black" />
<line x1="550" y1="216" x2="342" y2="290" stroke="black" />
<line x1="550" y1="216" x2="358" y2="290" stroke="black" />
<line x1="566" y1="216" x2="118" y2="290" stroke="black" />
<line x1="566" y1="216" x2="134" y2="290" stroke="black" />
<line x1="566" y1="216" x2="150" y2="290" stroke="black" />
<line x1="566" y1="216" x2="166" y2="290" stroke="black" />
<line x1="566" y1="216" x2="182" y2="290" stroke="black" />
<line x1="566" y1="216" x2="198" y2="290" stroke="black" />
<line x1="566" y1="216" x2="214" y2="290" stroke="black" />
<line x1="566" y1="216" x2="230" y2="290" stroke="black" />
<line x1="566" y1="216" x2="246" y2="290" stroke="black" />
<line x1="566" y1="216" x2="262" y2="290" stroke="black" />
<line x1="566" y1="216" x2="278" y2="290" stroke="black" />
<line x1="566" y1="216" x2="294" y2="290" stroke="black" />
<line x1="566" y1="216" x2="310" y2="290" stroke="black" />
<line x1="566" y1="216" x2="326" y2="290" stroke="black" />
<line x1="566" y1="216" x2="342" y2="290" stroke="black" />
<line x1="566" y1="216" x2="358" y2="290" stroke="black" />
<line x1="582" y1="216" x2="118" y2="290" stroke="black" />
<line x1="582" y1="216" x2="134" y2="290" stroke="black" />
<line x1="582" y1="216" x2="150" y2="290" stroke="black" />
<line x1="582" y1="216" x2="166" y2="290" stroke="black" />
<line x1="582" y1="216" x2="182" y2="290" stroke="black" />
<line x1="582" y1="216" x2="198" y2="290" stroke="black" />
<line x1="582" y1="216" x2="214" y2="290" stroke="black" />
<line x1="582" y1="216" x2="230" y2="290" stroke="black" />
<line x1="582" y1="216" x2="246" y2="290" stroke="black" />
<line x1="582" y1="216" x2="262" y2="290" stroke="black" />
<line x1="582" y1="216" x2="278" y2="290" stroke="black" />
<line x1="582" y1="216" x2="294" y2="290" stroke="black" />
<line x1="582" y1="216" x2="310" y2="290" stroke="black" />
<line x1="582" y1="216" x2="326" y2="290" stroke="black" />
<line x1="582" y1="216" x2="342" y2="290" stroke="black" />
<line x1="582" y1="216" x2="358" y2="290" stroke="black" />
<line x1="598" y1="216" x2="118" y2="290" stroke="black" />
<line x1="598" y1="216" x2="134" y2="290" stroke="black" />
<line x1="598" y1="216" x2="150" y2="290" stroke="black" />
<line x1="598" y1="216" x2="166" y2="290" stroke="black" />
<line x1="598" y1="216" x2="182" y2="290" stroke="black" />
<line x1="598" y1="216" x2="198" y2="290" stroke="black" />
<line x1="598" y1="216" x2="214" y2="290" stroke="black" />
<line x1="598" y1="216" x2="230" y2="290" stroke="black" />
<line x1="598" y1="216" x2="246" y2="290" stroke="black" />
<line x1="598" y1="216" x2="262" y2="290" stroke="black" />
<line x1="598" y1="216" x2="278" y2="290" stroke="black" />
<line x1="598" y1="216" x2="294" y2="290" stroke="black" />
<line x1="598" y1="216" x2="310" y2="290" stroke="black" />
<line x1="598" y1="216" x2="326" y2="290" stroke="black" />
<line x1="598" y1="216" x2="342" y2="290" stroke="black" />
<line x1="598" y1="216" x2="358" y2="290" stroke="black" />
<line x1="614" y1="216" x2="118" y2="290" stroke="black" />
<line x1="614" y1="216" x2="134" y2="290" stroke="black" />
<line x1="614" y1="216" x2="150" y2="290" stroke="black" />
<line x1="614" y1="216" x2="166" y2="290" stroke="black" />
<line x1="614" y1="216" x2="182" y2="290" stroke="black" />
<line x1="614" y1="216" x2="198" y2="290" stroke="black" />
<line x1="614" y1="216" x2="214" y2="290" stroke="black" />
<line x1="614" y1="216" x2="230" y2="290" stroke="black" />
<line x1="614" y1="216" x2="246" y2="290" stroke="black" />
<line x1="614" y1="216" x2="262" y2="290" stroke="black" />
<line x1="614" y1="216" x2="278" y2="290" stroke="black" />
<line x1="614" y1="216" x2="294" y2="290" stroke="black" />
<line x1="614" y1="216" x2="310" y2="290" stroke="black" />
<line x1="614" y1="216" x2="326" y2="290" stroke="black" />
<line x1="614" y1="216" x2="342" y2="290" stroke="black" />
<line x1="614" y1="216" x2="358" y2="290" stroke="black" />
<line x1="118" y1="316" x2="118" y2="390" stroke="black" />
<line x1="134" y1="316" x2="134" y2="390" stroke="black" />
<line x1="150" y1="316" x2="150" y2="390" stroke="black" />
<line x1="166" y1="316" x2="166" y2="390" stroke="black" />
<line x1="182" y1="316" x2="182" y2="390" stroke="black" />
<line x1="198" y1="316" x2="198" y2="390" stroke="black" />
<line x1="214" y1="316" x2="214" y2="390" stroke="black" />
<line x1="230" y1="316" x2="230" y2="390" stroke="black" />
<line x1="246" y1="316" x2="246" y2="390" stroke="black" />
<line x1="262" y1="316" x2="262" y2="390" stroke="black" />
<line x1="278" y1="316" x2="278" y2="390" stroke="black" />
<line x1="294" y1="316" x2="294" y2="390" stroke="black" />
<line x1="310" y1="316" x2="310" y2="390" stroke="black" />
<line x1="326" y1="316" x2="326" y2="390" stroke="black" />
<line x1="342" y1="316" x2="342" y2="390" stroke="black" />
<line x1="358" y1="316" x2="358" y2="390" stroke="black" />
</svg>
