<svg version="1.1"
     width="700" height="450"
     xmlns="http://www.w3.org/2000/svg">
<text x="20" y="100">(1)</text>
<text x="100" y="100" text-anchor="end" font-style="italic">b</text>
<text x="100" y="115" text-anchor="end">data</text>
<rect x="110" y="90" width="64" height="26" fill="white" stroke="blue" />
<text x="142" y="103" text-anchor="middle" dominant-baseline="middle">7</text>
<rect x="174" y="90" width="64" height="26" fill="white" stroke="blue" />
<text x="206" y="103" text-anchor="middle" dominant-baseline="middle">6</text>
<rect x="238" y="90" width="64" height="26" fill="white" stroke="blue" />
<text x="270" y="103" text-anchor="middle" dominant-baseline="middle">5</text>
<rect x="302" y="90" width="64" height="26" fill="white" stroke="blue" />
<text x="334" y="103" text-anchor="middle" dominant-baseline="middle">4</text>
<text x="110" y="80" text-anchor="begin">upper</text>
<text x="366" y="80" text-anchor="end">lower</text>
<text x="400" y="100" text-anchor="end" font-style="italic">c</text>
<text x="400" y="115" text-anchor="end">data</text>
<rect x="410" y="90" width="64" height="26" fill="white" stroke="blue" />
<text x="442" y="103" text-anchor="middle" dominant-baseline="middle">3</text>
<rect x="474" y="90" width="64" height="26" fill="white" stroke="blue" />
<text x="506" y="103" text-anchor="middle" dominant-baseline="middle">2</text>
<rect x="538" y="90" width="64" height="26" fill="white" stroke="blue" />
<text x="570" y="103" text-anchor="middle" dominant-baseline="middle">1</text>
<rect x="602" y="90" width="64" height="26" fill="white" stroke="blue" />
<text x="634" y="103" text-anchor="middle" dominant-baseline="middle">0</text>
<text x="410" y="80" text-anchor="begin">upper</text>
<text x="666" y="80" text-anchor="end">lower</text>
<text x="20" y="200">(2)</text>
<text x="100" y="200" text-anchor="end" font-style="italic">temp</text>
<text x="100" y="215" text-anchor="end">merged</text>
<rect x="110" y="190" width="64" height="26" fill="white" stroke="blue" />
<text x="142" y="203" text-anchor="middle" dominant-baseline="middle">7</text>
<rect x="174" y="190" width="64" height="26" fill="white" stroke="blue" />
<text x="206" y="203" text-anchor="middle" dominant-baseline="middle">6</text>
<rect x="238" y="190" width="64" height="26" fill="white" stroke="blue" />
<text x="270" y="203" text-anchor="middle" dominant-baseline="middle">5</text>
<rect x="302" y="190" width="64" height="26" fill="white" stroke="blue" />
<text x="334" y="203" text-anchor="middle" dominant-baseline="middle">4</text>
<rect x="366" y="190" width="64" height="26" fill="white" stroke="blue" />
<text x="398" y="203" text-anchor="middle" dominant-baseline="middle">3</text>
<rect x="430" y="190" width="64" height="26" fill="white" stroke="blue" />
<text x="462" y="203" text-anchor="middle" dominant-baseline="middle">2</text>
<rect x="494" y="190" width="64" height="26" fill="white" stroke="blue" />
<text x="526" y="203" text-anchor="middle" dominant-baseline="middle">1</text>
<rect x="558" y="190" width="64" height="26" fill="white" stroke="blue" />
<text x="590" y="203" text-anchor="middle" dominant-baseline="middle">0</text>
<text x="20" y="300">(3)</text>
<text x="100" y="300" text-anchor="end" font-style="italic">a</text>
<text x="100" y="315" text-anchor="end">indices</text>
<rect x="110" y="290" width="64" height="26" fill="white" stroke="blue" />
<rect x="174" y="290" width="64" height="26" fill="white" stroke="blue" />
<rect x="238" y="290" width="64" height="26" fill="white" stroke="blue" />
<rect x="302" y="290" width="64" height="26" fill="white" stroke="blue" />
<text x="20" y="400">(4)</text>
<text x="100" y="400" text-anchor="end" font-style="italic">ret</text>
<text x="100" y="415" text-anchor="end">returns</text>
<rect x="110" y="390" width="64" height="26" fill="white" stroke="blue" />
<rect x="174" y="390" width="64" height="26" fill="white" stroke="blue" />
<rect x="238" y="390" width="64" height="26" fill="white" stroke="blue" />
<rect x="302" y="390" width="64" height="26" fill="white" stroke="blue" />
<line x1="142" y1="116" x2="142" y2="190" stroke="black" />
<line x1="442" y1="116" x2="398" y2="190" stroke="black" />
<line x1="206" y1="116" x2="206" y2="190" stroke="black" />
<line x1="506" y1="116" x2="462" y2="190" stroke="black" />
<line x1="270" y1="116" x2="270" y2="190" stroke="black" />
<line x1="570" y1="116" x2="526" y2="190" stroke="black" />
<line x1="334" y1="116" x2="334" y2="190" stroke="black" />
<line x1="634" y1="116" x2="590" y2="190" stroke="black" />
<line x1="142" y1="216" x2="142" y2="290" stroke="black" />
<line x1="142" y1="216" x2="206" y2="290" stroke="black" />
<line x1="142" y1="216" x2="270" y2="290" stroke="black" />
<line x1="142" y1="216" x2="334" y2="290" stroke="black" />
<line x1="206" y1="216" x2="142" y2="290" stroke="black" />
<line x1="206" y1="216" x2="206" y2="290" stroke="black" />
<line x1="206" y1="216" x2="270" y2="290" stroke="black" />
<line x1="206" y1="216" x2="334" y2="290" stroke="black" />
<line x1="270" y1="216" x2="142" y2="290" stroke="black" />
<line x1="270" y1="216" x2="206" y2="290" stroke="black" />
<line x1="270" y1="216" x2="270" y2="290" stroke="black" />
<line x1="270" y1="216" x2="334" y2="290" stroke="black" />
<line x1="334" y1="216" x2="142" y2="290" stroke="black" />
<line x1="334" y1="216" x2="206" y2="290" stroke="black" />
<line x1="334" y1="216" x2="270" y2="290" stroke="black" />
<line x1="334" y1="216" x2="334" y2="290" stroke="black" />
<line x1="398" y1="216" x2="142" y2="290" stroke="black" />
<line x1="398" y1="216" x2="206" y2="290" stroke="black" />
<line x1="398" y1="216" x2="270" y2="290" stroke="black" />
<line x1="398" y1="216" x2="334" y2="290" stroke="black" />
<line x1="462" y1="216" x2="142" y2="290" stroke="black" />
<line x1="462" y1="216" x2="206" y2="290" stroke="black" />
<line x1="462" y1="216" x2="270" y2="290" stroke="black" />
<line x1="462" y1="216" x2="334" y2="290" stroke="black" />
<line x1="526" y1="216" x2="142" y2="290" stroke="black" />
<line x1="526" y1="216" x2="206" y2="290" stroke="black" />
<line x1="526" y1="216" x2="270" y2="290" stroke="black" />
<line x1="526" y1="216" x2="334" y2="290" stroke="black" />
<line x1="590" y1="216" x2="142" y2="290" stroke="black" />
<line x1="590" y1="216" x2="206" y2="290" stroke="black" />
<line x1="590" y1="216" x2="270" y2="290" stroke="black" />
<line x1="590" y1="216" x2="334" y2="290" stroke="black" />
<line x1="142" y1="316" x2="142" y2="390" stroke="black" />
<line x1="206" y1="316" x2="206" y2="390" stroke="black" />
<line x1="270" y1="316" x2="270" y2="390" stroke="black" />
<line x1="334" y1="316" x2="334" y2="390" stroke="black" />
</svg>
